<svg width="41" height="41" viewBox="0 0 41 41" fill="none" xmlns="http://www.w3.org/2000/svg">
<g clip-path="url(#clip0_228_735)">
<path d="M5.06927 15.6953H3.68359C3.02023 15.6953 2.48242 16.2331 2.48242 16.8965V20.5C2.48242 21.0363 2.83789 21.5076 3.35359 21.655C3.43783 21.6791 3.98533 21.8337 4.88477 22.0544V27.707C4.88477 28.3704 5.42257 28.9082 6.08594 28.9082H7.78872C8.06843 29.8896 8.46394 30.8358 8.97131 31.7371L7.75957 32.9489C7.29047 33.418 7.29047 34.1785 7.75957 34.6476L11.157 38.045C11.6261 38.5141 12.3866 38.5141 12.8557 38.045L14.0675 36.8333C14.9688 37.3407 15.915 37.7362 16.8964 38.016V39.7988C16.8964 40.4622 17.4342 41 18.0976 41H22.9023C23.5656 41 24.1034 40.4622 24.1034 39.7988V38.016C25.0848 37.7363 26.0309 37.3407 26.9324 36.8334L28.1441 38.0451C28.6131 38.5142 29.3736 38.5142 29.8428 38.0451L33.2403 34.6476C33.7091 34.1788 33.7094 33.418 33.2403 32.9489L32.0286 31.7372C32.536 30.8358 32.9315 29.8896 33.2112 28.9083H34.9141C35.5774 28.9083 36.1152 28.3705 36.1152 27.7071V22.0545C37.0147 21.8338 37.5621 21.6791 37.6464 21.655C38.1621 21.5076 38.5176 21.0363 38.5176 20.5V16.8965C38.5176 16.2331 37.9798 15.6953 37.3164 15.6953H35.9307C35.1569 10.6835 32.0278 6.44164 27.7525 4.18761L28.2518 3.071C28.3829 2.77791 28.3911 2.44455 28.2748 2.14529C28.1584 1.84604 27.9271 1.60589 27.6324 1.47832C25.3659 0.497365 22.9662 0 20.5 0C18.0338 0 15.6341 0.497365 13.3676 1.47824C13.0729 1.60581 12.8416 1.84596 12.7252 2.14521C12.6089 2.44446 12.6171 2.77783 12.7482 3.07092L13.2475 4.18753C8.97091 6.44237 5.84298 10.6851 5.06927 15.6953ZM33.7129 26.5059H32.2689C31.698 26.5059 31.206 26.9077 31.0919 27.467C30.8185 28.8084 30.2861 30.0826 29.5095 31.2543C29.1938 31.7305 29.2573 32.3633 29.6613 32.7673L30.6923 33.7983L28.9936 35.497L27.9626 34.466C27.5586 34.062 26.9258 33.9985 26.4496 34.3142C25.2779 35.0908 24.0037 35.6232 22.6624 35.8966C22.1031 36.0107 21.7013 36.5027 21.7013 37.0736V38.5977H19.2989V37.0736C19.2989 36.5027 18.8971 36.0107 18.3377 35.8966C16.9963 35.6232 15.7221 35.0908 14.5505 34.3142C14.0743 33.9985 13.4415 34.062 13.0375 34.466L12.0065 35.497L10.3077 33.7983L11.3387 32.7673C11.7427 32.3633 11.8062 31.7306 11.4906 31.2543C10.714 30.0826 10.1816 28.8084 9.90815 27.467C9.79412 26.9077 9.30211 26.5059 8.73116 26.5059H7.28711V22.5998C8.69448 22.8952 10.4037 23.2131 12.2905 23.4803C12.1587 24.0752 12.0918 24.6848 12.0918 25.3047C12.0918 29.941 15.8637 33.7129 20.5 33.7129C25.1363 33.7129 28.9082 29.941 28.9082 25.3047C28.9082 24.6848 28.8413 24.0752 28.7095 23.4803C30.5963 23.2131 32.3055 22.8952 33.7129 22.5998V26.5059ZM14.4941 25.3047C14.4941 24.7835 14.5601 24.2729 14.6899 23.7782C16.5517 23.9756 18.5214 24.1035 20.5 24.1035C22.4786 24.1035 24.4483 23.9756 26.3101 23.7782C26.4399 24.2729 26.5059 24.7835 26.5059 25.3047C26.5059 28.6163 23.8116 31.3105 20.5 31.3105C17.1884 31.3105 14.4941 28.6163 14.4941 25.3047ZM36.1152 18.0977V19.5753C33.7762 20.1684 27.093 21.7012 20.5 21.7012C13.907 21.7012 7.22369 20.1684 4.88477 19.5753V18.0977H36.1152ZM14.2313 6.38783L17.0011 12.5822C17.272 13.1878 17.9827 13.4591 18.588 13.1884C19.1936 12.9176 19.465 12.2071 19.1942 11.6016L15.4566 3.24284C17.0796 2.68462 18.771 2.40234 20.5 2.40234C22.229 2.40234 23.9204 2.68462 25.5434 3.24284L21.8058 11.6015C21.535 12.2071 21.8065 12.9176 22.412 13.1883C23.0189 13.4596 23.7287 13.1865 23.9989 12.5821L26.7687 6.38775C30.2526 8.286 32.7636 11.7665 33.4929 15.6952H7.507C8.23628 11.7665 10.7474 8.28608 14.2313 6.38783Z" fill="#24284B"/>
</g>
<defs>
<clipPath id="clip0_228_735">
<rect width="41" height="41" fill="white"/>
</clipPath>
</defs>
</svg>
