<svg width="20" height="20" viewBox="0 0 20 20" fill="none" xmlns="http://www.w3.org/2000/svg">
<path d="M19.6624 9.81285L16.4738 6.51828C16.3635 6.40422 16.2115 6.33984 16.0528 6.33984H13.9428V9.81285H19.6624Z" fill="#28CB5A"/>
<path d="M13.9428 12.6224C13.959 12.6055 13.9746 12.5882 13.9912 12.5716C14.5815 11.9812 15.3664 11.6561 16.2012 11.6561C17.036 11.6561 17.8209 11.9812 18.4111 12.5716C19.091 13.2515 19.3911 14.1692 19.3123 15.0594C19.3782 15.0598 19.414 15.0601 19.414 15.0601C19.7376 15.0601 20 14.7977 20 14.4741V10.9849H13.9428V12.6224Z" fill="#28CB5A"/>
<path d="M12.7709 3.22607H2.43591C2.11232 3.22607 1.84998 3.48842 1.84998 3.81201V5.57037H6.50138C6.82497 5.57037 7.08732 5.83272 7.08732 6.15631C7.08732 6.4799 6.82497 6.74225 6.50138 6.74225H1.84998V7.91467H6.07158C6.39517 7.91467 6.65751 8.17701 6.65751 8.50061C6.65751 8.8242 6.39517 9.08655 6.07158 9.08655H1.84998V14.4677C1.84998 14.7913 2.11232 15.0536 2.43591 15.0536H2.88791C2.88021 14.9636 2.8756 14.873 2.8756 14.7816C2.8756 13.9468 3.20068 13.1619 3.79099 12.5716C4.3813 11.9813 5.16615 11.6562 6.00095 11.6562C6.83579 11.6562 7.62068 11.9813 8.21091 12.5716C8.89091 13.2517 9.19103 14.1697 9.11204 15.0601H12.7709V3.22607Z" fill="#28CB5A"/>
<path d="M1.40643 5.57031C1.08284 5.57031 0.820496 5.83266 0.820496 6.15625C0.820496 6.47984 1.08284 6.74219 1.40643 6.74219H1.84995V5.57031H1.40643Z" fill="#28CB5A"/>
<path d="M0.585938 7.91455C0.262344 7.91455 0 8.17689 0 8.50049C0 8.82408 0.262344 9.08643 0.585938 9.08643H1.84996V7.91455H0.585938Z" fill="#28CB5A"/>
<path d="M7.40987 13.3727C7.03354 12.9963 6.53315 12.7891 6.00096 12.7891C5.46877 12.7891 4.96838 12.9963 4.59206 13.3727C4.21573 13.749 4.00842 14.2494 4.00842 14.7817C4.00842 15.3139 4.21573 15.8143 4.59206 16.1906C4.96838 16.567 5.46877 16.7743 6.00096 16.7743C6.53315 16.7743 7.03354 16.567 7.40987 16.1906C8.18674 15.4138 8.18674 14.1496 7.40987 13.3727Z" fill="#28CB5A"/>
<path d="M14.2086 14.7817C14.2086 15.3139 14.4159 15.8143 14.7923 16.1906C15.1686 16.567 15.669 16.7743 16.2012 16.7743C16.7334 16.7743 17.2337 16.567 17.6101 16.1906C18.387 15.4137 18.387 14.1496 17.6101 13.3727C17.2337 12.9963 16.7334 12.7891 16.2012 12.7891C15.6689 12.7891 15.1686 12.9963 14.7923 13.3727C14.4159 13.749 14.2086 14.2494 14.2086 14.7817Z" fill="#28CB5A"/>
</svg>
