<svg width="20" height="20" viewBox="0 0 20 20" fill="none" xmlns="http://www.w3.org/2000/svg">
<g clip-path="url(#clip0_228_687)">
<path d="M10 9.98589C11.8443 9.98589 13.4981 8.77812 13.5531 6.70855C13.6348 3.65386 10.559 0.326123 10.4281 0.185889C10.1967 -0.0618848 9.80348 -0.062041 9.57188 0.185889C9.44102 0.326123 6.36524 3.65386 6.44688 6.70855C6.50254 8.80058 8.17993 9.98589 10 9.98589Z" fill="#28CB5A"/>
<path d="M0 17.1768V19.4139C0 19.7068 0.215625 19.9502 0.496875 19.9932L3.31289 17.1768H0Z" fill="#28CB5A"/>
<path d="M4.96993 17.1768L2.14728 19.9998H3.96642L6.78946 17.1768H4.96993Z" fill="#28CB5A"/>
<path d="M8.4465 17.1768L5.62384 19.9998H7.44298L10.266 17.1768H8.4465Z" fill="#28CB5A"/>
<path d="M11.9231 17.1768L9.1004 19.9998H10.9195L13.7426 17.1768H11.9231Z" fill="#28CB5A"/>
<path d="M15.3996 17.1768L12.577 19.9998H14.3961L17.2192 17.1768H15.3996Z" fill="#28CB5A"/>
<path d="M16.0535 19.9998H19.4141C19.7375 19.9998 20 19.7373 20 19.4139V17.1768H18.8766L16.0535 19.9998Z" fill="#28CB5A"/>
<path d="M19.4141 14.1407H11.6519L17.6675 9.25891L17.6034 9.74285C17.557 10.093 17.829 10.4059 18.185 10.4059C18.4744 10.4059 18.7261 10.1915 18.7652 9.89684C19.0614 7.66231 19.0187 7.98527 19.0234 7.94621C19.0623 7.62535 18.834 7.33684 18.519 7.295L16.575 7.03735C16.2546 6.99496 15.9597 7.22043 15.9171 7.54125C15.8746 7.86203 16.1002 8.15656 16.421 8.1991L17.0165 8.27805L9.99746 13.9741L2.31043 7.82246C2.05777 7.62024 1.68906 7.66121 1.48684 7.91383C1.28465 8.16648 1.32555 8.53523 1.57824 8.73742L8.33008 14.1407H0.585938C0.262344 14.1407 0 14.403 0 14.7266V16.0053H20C20 15.2833 20 15.4363 20 14.7266C20 14.403 19.7377 14.1407 19.4141 14.1407Z" fill="#28CB5A"/>
</g>
<defs>
<clipPath id="clip0_228_687">
<rect width="20" height="20" fill="white"/>
</clipPath>
</defs>
</svg>
