<svg width="20" height="20" viewBox="0 0 20 20" fill="none" xmlns="http://www.w3.org/2000/svg">
<g clip-path="url(#clip0_228_698)">
<path d="M19.2798 16.8701L16.9862 11.9517C15.7198 13.7957 13.7424 15.1088 11.4535 15.5069L13.3735 19.6242C13.6189 20.151 14.3786 20.1158 14.5763 19.5718L15.5604 16.8685L15.7632 16.7739L18.4665 17.758C19.009 17.9571 19.525 17.3949 19.2798 16.8701Z" fill="#28CB5A"/>
<path d="M10 0C6.04747 0 2.83145 3.21582 2.83145 7.16859C2.83145 11.1214 6.04751 14.3372 10 14.3372C13.9526 14.3372 17.1686 11.1214 17.1686 7.16859C17.1686 3.21582 13.9527 0 10 0ZM13.4881 6.64187L12.217 7.88102L12.5174 9.63117C12.6092 10.1655 12.0462 10.567 11.5716 10.3181L10.0001 9.49199L8.42856 10.318C7.95126 10.5687 7.39149 10.1625 7.48282 9.63113L7.78321 7.88098L6.51208 6.64184C6.12575 6.2652 6.34016 5.60773 6.87321 5.53027L8.63013 5.27508L9.41591 3.68316C9.65368 3.19973 10.3463 3.1993 10.5844 3.68316L11.3702 5.27508L13.1271 5.53027C13.66 5.6077 13.8744 6.2652 13.4881 6.64187Z" fill="#28CB5A"/>
<path d="M3.01392 11.9517L0.720325 16.8701C0.474036 17.3974 0.994661 17.9565 1.53365 17.7579L4.23693 16.7738L4.43974 16.8684L5.42384 19.5717C5.62115 20.1146 6.38072 20.1521 6.62669 19.6241L8.54669 15.5069C6.25775 15.1088 4.2804 13.7957 3.01392 11.9517Z" fill="#28CB5A"/>
</g>
<defs>
<clipPath id="clip0_228_698">
<rect width="20" height="20" fill="white"/>
</clipPath>
</defs>
</svg>
