<svg width="40" height="40" viewBox="0 0 40 40" fill="none" xmlns="http://www.w3.org/2000/svg">
<g clip-path="url(#clip0_252_1019)">
<path d="M17.3501 9.79929C14.6209 9.76119 12.2816 12.1002 12.3198 14.8296C12.3236 19.2943 17.7472 21.5394 20.9066 18.386C24.0598 15.2262 21.8148 9.80297 17.3501 9.79929Z" fill="#28CB5A"/>
<path d="M28.9651 19.8147L30.3471 18.3339C30.4624 18.4577 31.356 19.4151 31.494 19.563C34.5172 9.97784 27.4516 -0.0465576 17.3499 0.000162684C9.17327 8.42944e-05 2.52112 6.65224 2.52112 14.8291C2.52112 17.55 3.27601 20.5437 4.76542 23.7247C5.93264 26.2191 7.55452 28.8412 9.58639 31.5198C13.913 37.0544 15.9245 38.648 17.3501 40C18.5629 38.8768 18.528 39.0034 20.8643 36.5493C20.8643 34.4346 20.8643 30.6508 20.8643 28.4995L28.9651 19.8154V19.8147ZM22.5693 20.0483C17.9323 24.6769 9.97449 21.3806 9.96814 14.829C9.91272 10.8248 13.3458 7.3909 17.3501 7.44711C23.9016 7.45283 27.1981 15.4122 22.5693 20.0483Z" fill="#28CB5A"/>
<path d="M23.216 30.1387V37.0785H29.1713V33.3417H31.523V37.0785H37.479V30.1387H23.216Z" fill="#28CB5A"/>
<path d="M24.7454 27.7867H35.9496L30.3471 21.7812L24.7454 27.7867Z" fill="#28CB5A"/>
</g>
<defs>
<clipPath id="clip0_252_1019">
<rect width="40" height="40" fill="white"/>
</clipPath>
</defs>
</svg>
