<svg width="20" height="20" viewBox="0 0 20 20" fill="none" xmlns="http://www.w3.org/2000/svg">
<path d="M19.4141 0H0.585938C0.262344 0 0 0.262344 0 0.585938V5.27344C0 6.45809 0.963789 7.42188 2.14844 7.42188H17.8516C19.0362 7.42188 20 6.45809 20 5.27344V0.585938C20 0.262344 19.7377 0 19.4141 0Z" fill="#28CB5A"/>
<path d="M17.8516 12.5781H2.14844C0.963789 12.5781 0 13.5419 0 14.7266V19.4141C0 19.7377 0.262344 20 0.585938 20H19.4141C19.7377 20 20 19.7377 20 19.4141V14.7266C20 13.5419 19.0362 12.5781 17.8516 12.5781Z" fill="#28CB5A"/>
<path d="M1.75781 10.5859C2.08141 10.5859 2.34375 10.3236 2.34375 10C2.34375 9.67641 2.08141 9.41406 1.75781 9.41406H0.585938C0.262344 9.41406 0 9.67641 0 10C0 10.3236 0.262344 10.5859 0.585938 10.5859H1.75781Z" fill="#28CB5A"/>
<path d="M5.28906 10.5859C5.61266 10.5859 5.875 10.3236 5.875 10C5.875 9.67641 5.61266 9.41406 5.28906 9.41406H4.11719C3.79359 9.41406 3.53125 9.67641 3.53125 10C3.53125 10.3236 3.79359 10.5859 4.11719 10.5859H5.28906Z" fill="#28CB5A"/>
<path d="M19.4141 9.41406H18.2422C17.9186 9.41406 17.6562 9.67641 17.6562 10C17.6562 10.3236 17.9186 10.5859 18.2422 10.5859H19.4141C19.7377 10.5859 20 10.3236 20 10C20 9.67641 19.7377 9.41406 19.4141 9.41406Z" fill="#28CB5A"/>
<path d="M15.8828 10.5859C16.2064 10.5859 16.4688 10.3236 16.4688 10C16.4688 9.67641 16.2064 9.41406 15.8828 9.41406H14.7109C14.3873 9.41406 14.125 9.67641 14.125 10C14.125 10.3236 14.3873 10.5859 14.7109 10.5859H15.8828Z" fill="#28CB5A"/>
<path d="M8.82031 10.5859C9.14391 10.5859 9.40625 10.3236 9.40625 10C9.40625 9.67641 9.14391 9.41406 8.82031 9.41406H7.64844C7.32484 9.41406 7.0625 9.67641 7.0625 10C7.0625 10.3236 7.32484 10.5859 7.64844 10.5859H8.82031Z" fill="#28CB5A"/>
<path d="M12.3516 10.5859C12.6752 10.5859 12.9375 10.3236 12.9375 10C12.9375 9.67641 12.6752 9.41406 12.3516 9.41406H11.1797C10.8561 9.41406 10.5938 9.67641 10.5938 10C10.5938 10.3236 10.8561 10.5859 11.1797 10.5859H12.3516Z" fill="#28CB5A"/>
</svg>
