<svg width="20" height="20" viewBox="0 0 20 20" fill="none" xmlns="http://www.w3.org/2000/svg">
<g clip-path="url(#clip0_228_661)">
<path d="M19.8504 2.49912C19.7779 2.25846 19.4744 2.18275 19.2974 2.35979L18.1415 3.51572H16.4844V1.85861L17.6404 0.702129C17.8182 0.52416 17.7411 0.221777 17.5023 0.14916C17.1751 0.0497461 16.8356 0.00732422 16.4878 0.00732422C15.5454 0.00732422 14.6619 0.365137 13.9987 1.03006C13.1861 1.84201 12.8222 3.00303 13.0236 4.13654L13.0774 4.43693L4.4368 13.0775C4.08778 13.0151 3.87758 12.9694 3.52012 12.9694C2.592 12.9694 1.68391 13.3447 1.0293 13.9988C0.105473 14.9232 -0.220113 16.2768 0.148872 17.5011C0.221606 17.7422 0.524497 17.8178 0.701919 17.6404L1.85793 16.4845H3.52344V18.1422L2.35938 19.2984C2.18161 19.476 2.25829 19.7789 2.49778 19.8515C2.82422 19.9503 3.16325 20.0001 3.51043 20.0001C5.69879 20.0001 7.36047 18.0258 6.97629 15.8636L6.9225 15.5632L15.5625 6.92264C15.9057 6.98397 16.1248 7.03119 16.4792 7.03022C17.4091 7.03022 18.3166 6.65541 18.97 6.00139C19.8945 5.0774 20.2197 3.72416 19.8504 2.49912Z" fill="#28CB5A"/>
<path d="M19.1434 14.9987L15.034 10.9299C14.7598 10.6562 14.419 10.4419 14.0457 10.2925L10.2534 14.0848C10.4028 14.4582 10.6173 14.7993 10.8912 15.0738L15.0001 19.1421C16.1422 20.2842 17.9961 20.2882 19.1434 19.1421C20.2855 17.9994 20.2855 16.1408 19.1434 14.9987ZM17.4732 17.4718C17.2443 17.7007 16.8735 17.7007 16.6446 17.4718L13.7654 14.6332C13.5366 14.4043 13.5366 14.0335 13.7654 13.8046C13.9943 13.5758 14.3651 13.5758 14.594 13.8046L17.4732 16.6432C17.702 16.8721 17.702 17.2429 17.4732 17.4718Z" fill="#28CB5A"/>
<path d="M5.01104 3.35382L5.01018 3.35409L5.53862 2.82565C5.69178 2.67233 5.6596 2.41667 5.47452 2.30565L1.89741 0.0835051C1.6669 -0.0548152 1.37178 -0.0184871 1.18174 0.17163L0.171742 1.18163C-0.018453 1.37182 -0.054703 1.66706 0.0837736 1.89761L2.30745 5.473C2.41885 5.65831 2.67518 5.68921 2.82737 5.53686L3.35366 5.01065L7.10018 8.75717L8.75729 7.10007L5.01104 3.35382Z" fill="#28CB5A"/>
</g>
<defs>
<clipPath id="clip0_228_661">
<rect width="20" height="20" fill="white"/>
</clipPath>
</defs>
</svg>
