<svg width="20" height="20" viewBox="0 0 20 20" fill="none" xmlns="http://www.w3.org/2000/svg">
<path d="M15.6679 3.36182C15.6679 3.14607 15.493 2.97119 15.2772 2.97119H10.5859V9.22842H15.6679V3.36182Z" fill="#28CB5A"/>
<path d="M9.41407 2.97119H4.72278C4.50704 2.97119 4.33215 3.14607 4.33215 3.36182V6.61553L6.21219 4.73494C6.44098 4.50607 6.812 4.50603 7.04083 4.73482C7.26969 4.96361 7.26973 5.33463 7.04094 5.56346L4.33215 8.27303V9.22842H9.41407V2.97119ZM8.22969 7.57494L7.72864 8.07619C7.61422 8.19064 7.46422 8.24787 7.31426 8.24787C7.16434 8.24787 7.01442 8.19068 6.90001 8.07631C6.67114 7.84756 6.67106 7.47654 6.89985 7.24768L7.4009 6.74643C7.62961 6.51756 8.00067 6.51748 8.22954 6.74627C8.4584 6.9751 8.45848 7.34611 8.22969 7.57494Z" fill="#28CB5A"/>
<path d="M9.41407 10.4004H4.33215V14.8998H9.41407V10.4004Z" fill="#28CB5A"/>
<path d="M15.6679 10.4004H10.5859V14.8998H15.6679V10.4004Z" fill="#28CB5A"/>
<path d="M3.16028 2.97129C3.16028 2.32406 3.68497 1.79941 4.33216 1.79941H15.6678C16.3151 1.79941 16.8397 2.32406 16.8397 2.97129V14.8998H18.5991V0.78125C18.5991 0.349766 18.2493 0 17.8178 0H2.18216C1.75068 0 1.40091 0.349766 1.40091 0.78125V14.8998H3.16028V2.97129Z" fill="#28CB5A"/>
<path d="M19.4141 16.0718H0.585938C0.262344 16.0718 0 16.3341 0 16.6577V16.6798C0 18.5106 1.48949 20.0001 3.32031 20.0001H16.6797C18.5105 20.0001 20 18.5106 20 16.6798V16.6577C20 16.3341 19.7377 16.0718 19.4141 16.0718Z" fill="#28CB5A"/>
</svg>
