<svg width="20" height="20" viewBox="0 0 20 20" fill="none" xmlns="http://www.w3.org/2000/svg">
<g clip-path="url(#clip0_228_633)">
<path d="M11.853 4.04355V0.0395508H3.34564C2.88822 0.0395508 2.5174 0.41038 2.5174 0.867797V19.1719C2.5174 19.6293 2.88822 20.0001 3.34564 20.0001H16.5975C17.0549 20.0001 17.4257 19.6293 17.4257 19.1719V5.59151H13.401C12.5475 5.59151 11.853 4.8971 11.853 4.04355ZM8.50836 15.6938L6.7463 17.4559C6.63211 17.5701 6.48245 17.6272 6.33282 17.6272C6.1832 17.6272 6.03349 17.5701 5.91934 17.4559L5.18782 16.7245C4.95944 16.4961 4.95944 16.1258 5.18782 15.8975C5.41616 15.6691 5.78644 15.6691 6.01482 15.8975L6.33282 16.2155L7.68141 14.8669C7.90974 14.6385 8.28003 14.6385 8.5084 14.8669C8.73678 15.0952 8.73678 15.4655 8.50836 15.6938ZM8.50836 11.7953L6.7463 13.5574C6.63211 13.6716 6.48245 13.7287 6.33282 13.7287C6.1832 13.7287 6.03349 13.6716 5.91934 13.5574L5.18782 12.8259C4.95944 12.5975 4.95944 12.2273 5.18782 11.9989C5.41616 11.7705 5.78644 11.7705 6.01482 11.9989L6.33282 12.3169L7.68141 10.9683C7.90974 10.74 8.28003 10.74 8.5084 10.9683C8.73678 11.1967 8.73678 11.5669 8.50836 11.7953ZM8.50836 7.59902L6.7463 9.36109C6.63211 9.47528 6.48245 9.53239 6.33282 9.53239C6.1832 9.53239 6.03349 9.47532 5.91934 9.36109L5.18782 8.62957C4.95944 8.40119 4.95944 8.03094 5.18782 7.80257C5.41616 7.57419 5.78644 7.57419 6.01482 7.80257L6.33282 8.12057L7.68141 6.77203C7.90974 6.54365 8.28003 6.54365 8.5084 6.77203C8.73678 7.0004 8.73678 7.37065 8.50836 7.59902ZM14.3418 16.7462H10.5992C10.2762 16.7462 10.0144 16.4844 10.0144 16.1614C10.0144 15.8384 10.2762 15.5766 10.5992 15.5766H14.3418C14.6648 15.5766 14.9266 15.8384 14.9266 16.1614C14.9266 16.4844 14.6648 16.7462 14.3418 16.7462ZM10.0144 12.2629C10.0144 11.9399 10.2762 11.6781 10.5992 11.6781H14.3251C14.648 11.6781 14.9099 11.9399 14.9099 12.2629C14.9099 12.5858 14.648 12.8476 14.3251 12.8476H10.5992C10.2762 12.8476 10.0144 12.5858 10.0144 12.2629ZM14.9099 8.36431C14.9099 8.68726 14.6481 8.94909 14.3251 8.94909H10.5992C10.2763 8.94909 10.0145 8.68726 10.0145 8.36431C10.0145 8.04135 10.2763 7.77953 10.5992 7.77953H14.3251C14.6481 7.77953 14.9099 8.04135 14.9099 8.36431Z" fill="#28CB5A"/>
<path d="M13.0226 4.04346C13.0226 4.25211 13.1924 4.42185 13.401 4.42185H17.4825L13.0226 0V4.04346Z" fill="#28CB5A"/>
</g>
<defs>
<clipPath id="clip0_228_633">
<rect width="20" height="20" fill="white"/>
</clipPath>
</defs>
</svg>
