<svg width="20" height="20" viewBox="0 0 20 20" fill="none" xmlns="http://www.w3.org/2000/svg">
<g clip-path="url(#clip0_228_637)">
<path d="M7.03027 10.6838H6.67969C6.35609 10.6838 6.09375 10.9461 6.09375 11.2697C6.09375 11.5933 6.35609 11.8557 6.67969 11.8557H13.3203C13.6439 11.8557 13.9062 11.5933 13.9062 11.2697C13.9062 10.9461 13.6439 10.6838 13.3203 10.6838H12.9697C12.7333 9.48383 11.786 8.53617 10.5859 8.2998V9.21895C10.5859 9.54254 10.3236 9.80488 10 9.80488C9.67641 9.80488 9.41406 9.54254 9.41406 9.21895V8.2998C8.21402 8.53617 7.26672 9.48383 7.03027 10.6838Z" fill="#28CB5A"/>
<path d="M13.0203 15.7354C12.3234 16.6415 11.2288 17.2266 10 17.2266C8.77117 17.2266 7.67656 16.6415 6.97973 15.7354C5.85215 16.5523 5.11719 17.8794 5.11719 19.3751C5.11719 19.6987 5.37953 19.961 5.70312 19.961H14.2969C14.6205 19.961 14.8828 19.6987 14.8828 19.3751C14.8828 17.8794 14.1479 16.5523 13.0203 15.7354Z" fill="#28CB5A"/>
<path d="M10 16.0547C11.4562 16.0547 12.6367 14.8742 12.6367 13.418V13.0273H7.36328V13.418C7.36328 14.8742 8.54379 16.0547 10 16.0547Z" fill="#28CB5A"/>
<path d="M10.5859 8.29961V8.04687C10.5859 7.72328 10.3236 7.46094 10 7.46094C9.67641 7.46094 9.41406 7.72328 9.41406 8.04687V8.29961C9.60375 8.26227 9.79953 8.24219 10 8.24219C10.2005 8.24219 10.3963 8.26227 10.5859 8.29961Z" fill="#28CB5A"/>
<path d="M11.7969 4.43379H18.4375C18.7611 4.43379 19.0234 4.17144 19.0234 3.84785C19.0234 3.52426 18.7611 3.26191 18.4375 3.26191H18.0869C17.8505 2.06195 16.9032 1.1143 15.7031 0.87793V1.79707C15.7031 2.12066 15.4408 2.38301 15.1172 2.38301C14.7936 2.38301 14.5312 2.12066 14.5312 1.79707V0.87793C13.3312 1.1143 12.3839 2.06195 12.1475 3.26191H11.7969C11.4733 3.26191 11.2109 3.52426 11.2109 3.84785C11.2109 4.17144 11.4733 4.43379 11.7969 4.43379Z" fill="#28CB5A"/>
<path d="M15.1172 8.63281C16.5734 8.63281 17.7539 7.4523 17.7539 5.99609V5.60547H12.4805V5.99609C12.4805 7.4523 13.661 8.63281 15.1172 8.63281Z" fill="#28CB5A"/>
<path d="M18.1842 8.25146C17.4901 9.19279 16.3738 9.80467 15.1172 9.80467C14.6719 9.80467 14.2443 9.7276 13.8467 9.5865C13.8477 9.58877 13.8488 9.59096 13.8498 9.59318C14.5611 9.81838 15.0781 10.4847 15.0781 11.2695C15.0781 12.0701 14.5399 12.747 13.8064 12.9584C13.8077 12.9812 13.8086 13.0042 13.8086 13.0273V13.4179C13.8086 13.8708 13.729 14.3053 13.5834 14.7085C13.6258 14.7318 13.6676 14.7571 13.7079 14.7863C14.2002 15.143 14.6256 15.5729 14.9742 16.0547H19.4141C19.7377 16.0547 20 15.7924 20 15.4688V11.7578C20 10.3119 19.2822 9.03064 18.1842 8.25146Z" fill="#28CB5A"/>
<path d="M15.7031 0.877734V0.625C15.7031 0.301406 15.4408 0.0390625 15.1172 0.0390625C14.7936 0.0390625 14.5312 0.301406 14.5312 0.625V0.877734C14.7209 0.840391 14.9167 0.820312 15.1172 0.820312C15.3177 0.820312 15.5134 0.840391 15.7031 0.877734Z" fill="#28CB5A"/>
<path d="M1.5625 4.43379H8.20312C8.52672 4.43379 8.78906 4.17144 8.78906 3.84785C8.78906 3.52426 8.52672 3.26191 8.20312 3.26191H7.85254C7.61609 2.06195 6.66879 1.1143 5.46875 0.87793V1.79707C5.46875 2.12066 5.20641 2.38301 4.88281 2.38301C4.55922 2.38301 4.29688 2.12066 4.29688 1.79707V0.87793C3.09684 1.1143 2.14953 2.06195 1.91309 3.26191H1.5625C1.23891 3.26191 0.976562 3.52426 0.976562 3.84785C0.976562 4.17144 1.23891 4.43379 1.5625 4.43379Z" fill="#28CB5A"/>
<path d="M7.51953 5.99609V5.60547H2.24609V5.99609C2.24609 7.4523 3.4266 8.63281 4.88281 8.63281C6.33902 8.63281 7.51953 7.4523 7.51953 5.99609Z" fill="#28CB5A"/>
<path d="M6.29219 14.7863C6.33242 14.7571 6.37422 14.7318 6.41668 14.7084C6.27102 14.3052 6.19145 13.8707 6.19145 13.4179V13.0273C6.19145 13.0041 6.19231 12.9812 6.19363 12.9584C5.46012 12.747 4.92188 12.0701 4.92188 11.2695C4.92188 10.4847 5.43887 9.81838 6.15016 9.59318C6.15113 9.59092 6.15227 9.58873 6.15324 9.5865C5.7557 9.7276 5.32812 9.80467 4.88281 9.80467C3.62617 9.80467 2.50992 9.19279 1.81582 8.25146C0.717852 9.03064 0 10.3119 0 11.7578V15.4687C0 15.7923 0.262344 16.0547 0.585938 16.0547H5.02582C5.37445 15.5729 5.79988 15.1429 6.29219 14.7863Z" fill="#28CB5A"/>
<path d="M5.46875 0.877734V0.625C5.46875 0.301406 5.20641 0.0390625 4.88281 0.0390625C4.55922 0.0390625 4.29688 0.301406 4.29688 0.625V0.877734C4.48656 0.840391 4.68234 0.820312 4.88281 0.820312C5.08328 0.820312 5.27906 0.840391 5.46875 0.877734Z" fill="#28CB5A"/>
</g>
<defs>
<clipPath id="clip0_228_637">
<rect width="20" height="20" fill="white"/>
</clipPath>
</defs>
</svg>
