<svg width="44" height="44" viewBox="0 0 44 44" fill="none" xmlns="http://www.w3.org/2000/svg">
<g clip-path="url(#clip0_608_1388)">
<path d="M22.0001 26.4033C23.6445 26.4033 25.0705 25.576 25.8753 24.1735L25.3363 22.4785C24.3203 22.9721 23.1902 23.248 22 23.248C20.8098 23.248 19.6797 22.9721 18.6636 22.4785L18.1246 24.1735C18.9295 25.576 20.3556 26.4034 22.0001 26.4033Z" fill="#28CB5A"/>
<path d="M25.7887 6.85449C23.6631 9.00138 20.7593 10.2202 17.7198 10.2202H16.5756V14.8173C16.5756 18.0468 19.0089 20.6741 22 20.6741C24.9911 20.6741 27.4244 18.0467 27.4244 14.8173V8.93349C27.4244 7.92725 26.7261 7.08128 25.7887 6.85449Z" fill="#28CB5A"/>
<path d="M17.7198 7.6468C20.4548 7.6468 22.9745 6.29509 24.7032 4.22134C26.9968 4.03064 29.2604 5.47946 29.8485 7.75457C30.0917 7.41254 30.2361 6.99523 30.2361 6.54345V5.22947C30.2362 2.34137 27.8948 0 25.0066 0H13.7639V6.54345C13.7639 6.94839 13.8791 7.32634 14.078 7.6468H17.7198Z" fill="#28CB5A"/>
<path d="M11.9057 33.6357L12.6023 44.0003H31.3976L32.0943 33.6357H11.9057ZM20.7133 39.8332V37.2596H23.2868V39.8332H20.7133Z" fill="#28CB5A"/>
<path d="M9.15329 31.0621H34.8466L33.977 44.0003H40.1244L38.2862 32.971C37.8267 30.2139 35.8359 27.9599 33.1566 27.1634L28.0014 25.6309C26.7233 27.7111 24.4832 28.9769 22.0002 28.977C19.5171 28.977 17.2769 27.7111 15.9986 25.6309L10.8433 27.1637C8.16415 27.9603 6.17341 30.2142 5.7139 32.9711L3.87561 44.0003H10.023L9.15329 31.0621Z" fill="#28CB5A"/>
</g>
<defs>
<clipPath id="clip0_608_1388">
<rect width="44" height="44" fill="white"/>
</clipPath>
</defs>
</svg>
