<svg width="50" height="50" viewBox="0 0 50 50" fill="none" xmlns="http://www.w3.org/2000/svg">
<g clip-path="url(#clip0_608_1331)">
<path d="M11.8906 26.4648H2.92969V29.3945H11.8906C11.9674 30.3953 12.1226 31.3722 12.3487 32.3242H5.85938V35.2539H13.2857C16.1617 42.1284 22.954 46.9727 30.8594 46.9727C41.3594 46.9727 50 38.4297 50 27.9297C50 23.8243 48.6807 20.0281 46.4623 16.9147L49.4721 14.407L47.5981 12.1554L44.5898 14.662C42.0067 12.0084 38.5663 10.1016 34.8132 9.30547C35.0876 8.73242 35.2539 8.09873 35.2539 7.42188C35.2539 4.99863 33.2826 3.02734 30.8594 3.02734C28.4361 3.02734 26.4648 4.99863 26.4648 7.42188C26.4648 8.09873 26.6312 8.73242 26.9057 9.30547C23.1525 10.1016 19.8098 12.0084 17.2267 14.662L14.2183 12.1554L12.3443 14.407L15.3541 16.9147C14.5376 18.0604 13.8355 19.2917 13.2857 20.6055H0V23.5342H12.3487C12.1226 24.4872 11.9673 25.4641 11.8906 26.4648ZM44.1406 27.9297C44.1406 30.8064 43.2266 33.5416 41.4984 35.839L40.6201 37.0077L29.3945 28.6621V14.7461H30.8594C38.1292 14.7461 44.1406 20.6599 44.1406 27.9297ZM29.3945 7.42188C29.3945 6.61367 30.0512 5.95703 30.8594 5.95703C31.6676 5.95703 32.3242 6.61367 32.3242 7.42188C32.3242 8.23008 31.6676 8.88672 30.8594 8.88672C30.0512 8.88672 29.3945 8.23008 29.3945 7.42188Z" fill="#28CB5A"/>
<path d="M41.2109 27.9298C41.2109 22.7728 37.2866 18.4927 32.3242 17.7803V27.1974L39.955 32.8465C40.7804 31.3473 41.2109 29.6722 41.2109 27.9298Z" fill="#28CB5A"/>
</g>
<defs>
<clipPath id="clip0_608_1331">
<rect width="50" height="50" fill="white"/>
</clipPath>
</defs>
</svg>
