<svg width="44" height="44" viewBox="0 0 44 44" fill="none" xmlns="http://www.w3.org/2000/svg">
<g clip-path="url(#clip0_608_1667)">
<path d="M29.9222 12.6621C29.5619 12.6621 29.2015 12.7993 28.9273 13.0735C28.3787 13.6221 28.3787 14.5147 28.9273 15.0632C29.4758 15.6117 30.3684 15.6118 30.917 15.0632C31.4655 14.5146 31.4655 13.622 30.917 13.0735C30.6427 12.7993 30.2824 12.6621 29.9222 12.6621Z" fill="#28CB5A"/>
<path d="M35.6726 6.49414L42.162 0.00469265L43.9849 1.82754L37.4955 8.31699L35.6726 6.49414Z" fill="#28CB5A"/>
<path d="M33.4995 12.3142C34.2273 13.8016 33.9749 15.6515 32.7401 16.8863C31.9632 17.6632 30.9427 18.0517 29.9221 18.0517C28.9016 18.0517 27.8812 17.6632 27.1042 16.8863C25.5504 15.3325 25.5504 12.8043 27.1042 11.2504C28.3391 10.0155 30.189 9.7632 31.6764 10.4911L35.6768 6.49067L34.0757 4.88965L19.1732 5.98112L0.00976562 25.1445L18.8654 44.0002L38.0288 24.8369L39.1203 9.93431L37.4999 8.31386L33.4995 12.3142ZM18.7325 18.1408L20.5556 19.9639L18.7325 21.787L16.9093 19.9639L18.7325 18.1408ZM18.7325 32.4179L16.9094 30.5948L18.7325 28.7717L20.5556 30.5948L18.7325 32.4179ZM25.9543 26.5685H11.5106V23.9902H25.9543V26.5685Z" fill="#28CB5A"/>
</g>
<defs>
<clipPath id="clip0_608_1667">
<rect width="44" height="44" fill="white"/>
</clipPath>
</defs>
</svg>
