<svg width="44" height="44" viewBox="0 0 44 44" fill="none" xmlns="http://www.w3.org/2000/svg">
<path d="M22 20.998C20.9608 20.998 20.1152 21.8435 20.1152 22.8827C20.1152 23.922 20.9607 24.7674 22 24.7674C23.0393 24.7674 23.8848 23.922 23.8848 22.8827C23.8848 21.8435 23.0393 20.998 22 20.998Z" fill="#28CB5A"/>
<path d="M38.6234 19.7932L22 6.46973L5.32246 19.8367V41.4434H1.46387V43.9997H42.5362V41.4434H38.6234V19.7932ZM28.7067 29.6842C28.018 30.373 27.2486 30.9332 26.429 31.3655V40.9257L22 38.8736L17.571 40.9257V31.3655C16.7514 30.9333 15.9821 30.373 15.2933 29.6842C11.5952 25.9862 11.5952 19.969 15.2933 16.2708C18.9914 12.5727 25.0088 12.5728 28.7067 16.2708C32.4048 19.969 32.4048 25.9862 28.7067 29.6842Z" fill="#28CB5A"/>
<path d="M20.1274 32.2725V36.9805L22 35.9676L23.8726 36.9805V32.2725C23.2551 32.3959 22.6275 32.4582 22 32.4582C21.3725 32.4582 20.745 32.3959 20.1274 32.2725Z" fill="#28CB5A"/>
<path d="M22 16.0527C20.2256 16.0527 18.4517 16.7279 17.1008 18.0788C14.3995 20.7802 14.3995 25.1756 17.1008 27.877C19.8022 30.5783 24.1977 30.5783 26.8991 27.877C29.6005 25.1756 29.6005 20.7802 26.8991 18.0788C25.5485 16.7283 23.774 16.0527 22 16.0527ZM22 27.3237C19.5511 27.3237 17.5589 25.3314 17.5589 22.8827C17.5589 20.4338 19.5511 18.4416 22 18.4416C24.4488 18.4416 26.4411 20.4339 26.4411 22.8827C26.4411 25.3314 24.4488 27.3237 22 27.3237Z" fill="#28CB5A"/>
<path d="M22 3.27611L42.4012 19.6276L44 17.6328L36.742 11.8156V0H29.5354V6.03952L22 0L0 17.6328L1.5987 19.6276L22 3.27611Z" fill="#28CB5A"/>
</svg>
