<svg width="50" height="50" viewBox="0 0 50 50" fill="none" xmlns="http://www.w3.org/2000/svg">
<path d="M3.99643 44.4031H31.7195V6.64648H3.99643V44.4031ZM14.9706 28.1071V25.5714H25.8237V28.1071H14.9706ZM25.8237 31.3922V33.9279H14.9706V31.3922H25.8237ZM14.9706 22.2379V19.7023H25.8237V22.2379H14.9706ZM14.9706 16.3686V13.833H25.8237V16.3686H14.9706ZM10.6363 28.1563C9.93617 28.1563 9.36853 27.5887 9.36853 26.8885V26.79C9.36853 26.0898 9.93617 25.5221 10.6363 25.5221C11.3365 25.5221 11.9042 26.0898 11.9042 26.79V26.8885C11.9042 27.5887 11.3365 28.1563 10.6363 28.1563ZM11.9042 32.6108V32.7093C11.9042 33.4094 11.3365 33.9771 10.6363 33.9771C9.93617 33.9771 9.36853 33.4094 9.36853 32.7093V32.6108C9.36853 31.9106 9.93617 31.343 10.6363 31.343C11.3365 31.343 11.9042 31.9106 11.9042 32.6108ZM10.6363 22.2872C9.93617 22.2872 9.36853 21.7195 9.36853 21.0194V20.9208C9.36853 20.2206 9.93617 19.653 10.6363 19.653C11.3365 19.653 11.9042 20.2206 11.9042 20.9208V21.0194C11.9042 21.7195 11.3365 22.2872 10.6363 22.2872ZM10.6363 16.4179C9.93617 16.4179 9.36853 15.8503 9.36853 15.1501V15.0515C9.36853 14.3514 9.93617 13.7837 10.6363 13.7837C11.3365 13.7837 11.9042 14.3514 11.9042 15.0515V15.1501C11.9042 15.8503 11.3365 16.4179 10.6363 16.4179Z" fill="#28CB5A"/>
<path d="M34.3396 11.0176V37.926L37.805 46.0001L41.2704 37.926V11.0176H34.3396Z" fill="#28CB5A"/>
<path d="M42.518 8.48145H41.2704V11.0171H42.518C43.0418 11.0171 43.4679 11.4432 43.4679 11.967V22.0049H46.0036V11.967C46.0036 10.0451 44.4399 8.48145 42.518 8.48145Z" fill="#28CB5A"/>
<path d="M41.2704 8.48159V7.46733C41.2704 5.55656 39.7158 4.00195 37.805 4.00195C35.8942 4.00195 34.3396 5.55656 34.3396 7.46733V8.48159H41.2704Z" fill="#28CB5A"/>
</svg>
