<svg width="44" height="44" viewBox="0 0 44 44" fill="none" xmlns="http://www.w3.org/2000/svg">
<path d="M39.733 36.3309C40.3465 35.5047 40.7099 34.4825 40.7099 33.3768C40.7099 30.6383 38.482 28.4102 35.7433 28.4102C33.0046 28.4102 30.7767 30.6382 30.7767 33.3768C30.7767 34.4852 31.1419 35.5096 31.7578 36.3369C30.5973 36.8439 29.602 37.6589 28.8739 38.6781C28.1431 37.655 27.143 36.8375 25.9769 36.3309C26.5904 35.5047 26.9538 34.4825 26.9538 33.3768C26.9538 30.6383 24.7259 28.4102 21.9872 28.4102C19.2486 28.4102 17.0206 30.6382 17.0206 33.3768C17.0206 34.4852 17.3858 35.5096 18.0017 36.3369C16.8435 36.8429 15.8497 37.6557 15.1221 38.672C14.3917 37.6517 13.3932 36.8365 12.2294 36.3308C12.8429 35.5046 13.2063 34.4824 13.2063 33.3767C13.2063 30.6382 10.9783 28.4102 8.2397 28.4102C5.50113 28.4102 3.27311 30.6381 3.27311 33.3767C3.27311 34.4851 3.63826 35.5095 4.25417 36.3368C1.79868 37.4096 0.0776978 39.8605 0.0776978 42.7069V43.9995H43.9224V42.7069C43.9226 39.8555 42.1955 37.4008 39.733 36.3309Z" fill="#28CB5A"/>
<path d="M30.8133 14.8813L25.3304 13.1477L21.9872 8.46875L18.6442 13.1477L13.1612 14.8813L16.5781 19.5067L16.5324 25.257L21.9872 23.4368L27.442 25.257L27.3965 19.5067L30.8133 14.8813Z" fill="#28CB5A"/>
<path d="M23.2972 0H20.712V3.70193H23.2972V0Z" fill="#28CB5A"/>
<path d="M40.0123 15.5518H36.3103V18.1369H40.0123V15.5518Z" fill="#28CB5A"/>
<path d="M7.69888 15.5518H3.99695V18.1369H7.69888V15.5518Z" fill="#28CB5A"/>
<path d="M34.8234 3.66772L31.7743 6.7168L33.6023 8.54477L36.6514 5.4957L34.8234 3.66772Z" fill="#28CB5A"/>
<path d="M9.16746 3.65054L7.33948 5.47852L10.3886 8.52759L12.2165 6.69962L9.16746 3.65054Z" fill="#28CB5A"/>
</svg>
