<svg width="44" height="44" viewBox="0 0 44 44" fill="none" xmlns="http://www.w3.org/2000/svg">
<path d="M18.0469 7.73395V0.754883L11.0678 7.73395H18.0469Z" fill="#28CB5A"/>
<path d="M20.625 10.3125H10.3125V15.599C14.6738 16.2311 18.0469 19.9586 18.0469 24.4922C18.0469 27.6635 16.3932 30.4457 13.9118 32.0554C16.7044 33.3639 18.8683 35.7436 19.9123 38.6719H41.25V0H20.625V10.3125ZM36.0938 33.5156H20.625V30.9375H36.0938V33.5156ZM36.0938 28.3594H20.625V25.7812H36.0938V28.3594ZM29.6484 15.4688C27.5161 15.4688 25.7812 13.7339 25.7812 11.6016C25.7812 9.9231 26.8622 8.5058 28.3594 7.97171V5.15625H30.9375V7.97171C32.4347 8.5058 33.5156 9.9231 33.5156 11.6016H30.9375C30.9375 10.8902 30.3598 10.3125 29.6484 10.3125C28.9371 10.3125 28.3594 10.8902 28.3594 11.6016C28.3594 12.3129 28.9371 12.8906 29.6484 12.8906C31.7808 12.8906 33.5156 14.6255 33.5156 16.7578C33.5156 18.4363 32.4347 19.8536 30.9375 20.3877V23.2031H28.3594V20.3877C26.8622 19.8536 25.7812 18.4363 25.7812 16.7578H28.3594C28.3594 17.4691 28.9371 18.0469 29.6484 18.0469C30.3598 18.0469 30.9375 17.4691 30.9375 16.7578C30.9375 16.0465 30.3598 15.4688 29.6484 15.4688Z" fill="#28CB5A"/>
<path d="M15.4688 24.4922C15.4688 28.0519 12.5831 30.9375 9.02344 30.9375C5.46375 30.9375 2.57812 28.0519 2.57812 24.4922C2.57812 20.9325 5.46375 18.0469 9.02344 18.0469C12.5831 18.0469 15.4688 20.9325 15.4688 24.4922Z" fill="#28CB5A"/>
<path d="M9.02344 33.5156C4.04007 33.5156 0 37.6416 0 42.625V44H18.0469V42.625C18.0469 37.6416 14.0068 33.5156 9.02344 33.5156Z" fill="#28CB5A"/>
</svg>
