<svg width="20" height="20" viewBox="0 0 20 20" fill="none" xmlns="http://www.w3.org/2000/svg">
<path d="M6.6875 7.03125H9.03125V9.375H6.6875V7.03125Z" fill="#28CB5A"/>
<path d="M10.2031 7.03125H12.5469V9.375H10.2031V7.03125Z" fill="#28CB5A"/>
<path d="M10.2031 3.51562H12.5469V5.85938H10.2031V3.51562Z" fill="#28CB5A"/>
<path d="M3.17188 18.8281H2.58594C2.26215 18.8281 2 19.0903 2 19.4141C2 19.7379 2.26215 20 2.58594 20H5.51562V2.92969C5.51562 2.6059 5.77777 2.34375 6.10156 2.34375H13.1328C13.4566 2.34375 13.7188 2.6059 13.7188 2.92969V20H16.6484C16.9722 20 17.2344 19.7379 17.2344 19.4141C17.2344 19.0903 16.9722 18.8281 16.6484 18.8281H16.0625V0.585938C16.0625 0.262146 15.8004 0 15.4766 0H3.75781C3.43402 0 3.17188 0.262146 3.17188 0.585938V18.8281Z" fill="#28CB5A"/>
<path d="M6.6875 20H12.5469V10.5469H6.6875V20ZM7.85938 12.3047C7.85938 11.9809 8.12152 11.7188 8.44531 11.7188C8.7691 11.7188 9.03125 11.9809 9.03125 12.3047V13.4766C9.03125 13.8004 8.7691 14.0625 8.44531 14.0625C8.12152 14.0625 7.85938 13.8004 7.85938 13.4766V12.3047Z" fill="#28CB5A"/>
<path d="M6.6875 3.51562H9.03125V5.85938H6.6875V3.51562Z" fill="#28CB5A"/>
</svg>
