<svg width="15" height="15" viewBox="0 0 15 15" fill="none" xmlns="http://www.w3.org/2000/svg">
<path d="M15 4.88734V0.389964C15 0.174964 14.825 0 14.61 0H0.389964C0.174912 0 0 0.174964 0 0.389964V14.61C0 14.825 0.174912 15 0.389964 15H14.61C14.825 15 15 14.825 15 14.61V10.1127C15 9.8976 14.825 9.72269 14.61 9.72269H13.5701C13.3551 9.72269 13.1802 9.8976 13.1802 10.1127V13.1802H1.81983V1.81983H13.1802V4.88734C13.1802 5.1024 13.3551 5.27731 13.5701 5.27731H14.61C14.825 5.27731 15 5.1024 15 4.88734Z" fill="#28CB5A"/>
<path d="M9.08806 10.7267L9.82338 11.4621C9.89705 11.5357 9.99496 11.5763 10.0991 11.5763C10.2033 11.5763 10.3012 11.5357 10.3748 11.4621L14.0612 7.77571C14.1349 7.70203 14.1754 7.60412 14.1754 7.49998C14.1754 7.39583 14.1349 7.29792 14.0612 7.22425L10.3748 3.53789C10.3012 3.46426 10.2033 3.42371 10.0991 3.42371C9.99496 3.42371 9.897 3.46426 9.82332 3.53794L9.08806 4.27331C9.01438 4.34693 8.97383 4.44489 8.97383 4.54904C8.97383 4.65319 9.01438 4.75114 9.08806 4.82477L10.8534 6.59011H5.25087C5.03581 6.59011 4.8609 6.76502 4.8609 6.98008V8.01998C4.8609 8.23503 5.03581 8.40995 5.25087 8.40995H10.8534L9.08806 10.1753C8.93603 10.3273 8.93603 10.5747 9.08806 10.7267Z" fill="#28CB5A"/>
</svg>
