<svg width="15" height="15" viewBox="0 0 15 15" fill="none" xmlns="http://www.w3.org/2000/svg">
<path d="M14.5527 0H7.60449C7.35739 0 7.15717 0.200282 7.15717 0.447323V1.64019C7.15717 1.88723 7.35739 2.08751 7.60449 2.08751H11.4363L2.08751 11.4363V7.60455C2.08751 7.35751 1.88723 7.15723 1.64019 7.15723H0.447323C0.200222 7.15723 0 7.35751 0 7.60455V14.5526C0 14.7997 0.200222 14.9999 0.447323 14.9999H7.3955C7.64261 14.9999 7.84283 14.7997 7.84283 14.5526V13.3598C7.84283 13.1127 7.64261 12.9124 7.3955 12.9124H3.56367L12.9125 3.56362V7.39545C12.9125 7.64249 13.1127 7.84277 13.3598 7.84277H14.5527C14.7998 7.84277 15 7.64249 15 7.39545V0.447323C15 0.200282 14.7998 0 14.5527 0Z" fill="#28CB5A"/>
</svg>
