<svg width="15" height="15" viewBox="0 0 15 15" fill="none" xmlns="http://www.w3.org/2000/svg">
<g clip-path="url(#clip0_504_4293)">
<path d="M14.5698 0H9.62244C9.38479 0 9.19222 0.178912 9.19222 0.399595V1.46518C9.19222 1.68587 9.38479 1.86478 9.62244 1.86478H11.544L7.50003 5.62086L3.45609 1.86478H5.37762C5.61527 1.86478 5.80784 1.68587 5.80784 1.46518V0.399595C5.80784 0.178912 5.61527 0 5.37762 0H0.430219C0.192566 0 0 0.178912 0 0.399595V4.99473C0 5.21541 0.192566 5.39432 0.430219 5.39432H1.57747C1.81512 5.39432 2.00769 5.21541 2.00769 4.99473V3.15669L6.49619 7.3257V11.5959L5.11719 10.3151C4.94912 10.159 4.67676 10.159 4.50875 10.3151L3.69747 11.0686C3.61682 11.1435 3.5715 11.2452 3.5715 11.3512C3.5715 11.4571 3.61682 11.5588 3.69747 11.6337L7.19578 14.8829C7.27981 14.9609 7.38995 15 7.50003 15C7.61011 15 7.72024 14.961 7.80428 14.8829L11.3026 11.6336C11.3832 11.5586 11.4286 11.457 11.4286 11.3511C11.4286 11.2451 11.3832 11.1434 11.3025 11.0685L10.4913 10.315C10.3233 10.1589 10.0509 10.159 9.88281 10.315L8.50382 11.5959V7.3257L12.9923 3.15669V4.99473C12.9923 5.21541 13.1849 5.39432 13.4225 5.39432H14.5698C14.8074 5.39432 15 5.21541 15 4.99473V0.399595C15.0001 0.178912 14.8075 0 14.5698 0Z" fill="#28CB5A"/>
</g>
<defs>
<clipPath id="clip0_504_4293">
<rect width="15" height="15" fill="white"/>
</clipPath>
</defs>
</svg>
