<?xml version="1.0" encoding="utf-8"?><svg viewBox="0 0 50 50" xmlns="http://www.w3.org/2000/svg" xmlns:xlink="http://www.w3.org/1999/xlink"><style>:root>svg{display:none}:root>svg:target{display:block}</style><svg fill="#24284B" viewBox="0 0 18 18" id="all" xmlns="http://www.w3.org/2000/svg"><path d="M16.5 8.167a.833.833 0 00-.833.833 6.709 6.709 0 11-1.85-4.583h-2a.833.833 0 000 1.666h3.775a.833.833 0 00.833-.833V1.5a.833.833 0 00-1.667 0v1.475A8.334 8.334 0 1017.333 9a.833.833 0 00-.833-.833z"/></svg><svg fill="none" viewBox="0 0 24 24" id="chat" xmlns="http://www.w3.org/2000/svg"><path d="M20 2H4c-1.1 0-1.99.9-1.99 2L2 22l4-4h14c1.1 0 2-.9 2-2V4c0-1.1-.9-2-2-2zM6 9h12v2H6V9zm8 5H6v-2h8v2zm4-6H6V6h12v2z" fill="#24284B"/></svg><svg fill="none" viewBox="0 0 41 41" id="col2" xmlns="http://www.w3.org/2000/svg"><g clip-path="url(#cclip0_228_735)"><path d="M5.07 15.695H3.683c-.664 0-1.202.538-1.202 1.201V20.5c0 .536.356 1.008.872 1.155.084.024.631.179 1.53.4v5.652c0 .663.539 1.201 1.202 1.201h1.703c.28.982.675 1.928 1.182 2.83l-1.211 1.21c-.47.47-.47 1.23 0 1.7l3.397 3.397c.47.47 1.23.47 1.699 0l1.212-1.212c.9.508 1.847.903 2.828 1.183v1.783c0 .663.538 1.201 1.202 1.201h4.804c.664 0 1.201-.538 1.201-1.201v-1.783a13.06 13.06 0 002.83-1.183l1.211 1.212c.47.47 1.23.47 1.699 0l3.397-3.397c.47-.47.47-1.23 0-1.7l-1.211-1.21c.507-.902.902-1.848 1.182-2.83h1.703c.663 0 1.201-.538 1.201-1.2v-5.653c.9-.221 1.447-.376 1.531-.4.516-.147.872-.619.872-1.155v-3.604c0-.663-.538-1.2-1.202-1.2h-1.385c-.774-5.012-3.903-9.254-8.178-11.508l.499-1.117a1.201 1.201 0 00-.62-1.593A17.854 17.854 0 0020.5 0c-2.466 0-4.866.497-7.132 1.478a1.201 1.201 0 00-.62 1.593l.5 1.117C8.97 6.442 5.843 10.685 5.069 15.695zm28.643 10.81h-1.444c-.571 0-1.063.403-1.177.962a10.7 10.7 0 01-1.582 3.787 1.201 1.201 0 00.151 1.513l1.031 1.031-1.698 1.699-1.031-1.031a1.201 1.201 0 00-1.513-.152 10.7 10.7 0 01-3.788 1.583c-.559.114-.96.606-.96 1.177v1.524h-2.403v-1.524c0-.571-.402-1.063-.961-1.177a10.7 10.7 0 01-3.788-1.583 1.201 1.201 0 00-1.513.152l-1.03 1.031-1.7-1.699 1.032-1.03a1.201 1.201 0 00.152-1.514 10.701 10.701 0 01-1.583-3.787 1.201 1.201 0 00-1.177-.961H7.287V22.6a77.25 77.25 0 005.003.88 8.42 8.42 0 00-.198 1.825c0 4.636 3.772 8.408 8.408 8.408 4.636 0 8.408-3.772 8.408-8.408 0-.62-.067-1.23-.199-1.825a77.254 77.254 0 005.004-.88v3.906zm-19.219-1.2a6 6 0 01.196-1.527c1.862.198 3.831.326 5.81.326 1.979 0 3.948-.128 5.81-.326a6.013 6.013 0 01-5.81 7.532 6.013 6.013 0 01-6.006-6.005zm21.621-7.207v1.477c-2.339.593-9.022 2.126-15.615 2.126S7.224 20.168 4.885 19.575v-1.477h31.23zM14.231 6.388l2.77 6.194a1.201 1.201 0 002.193-.98l-3.737-8.36a15.447 15.447 0 015.043-.84c1.729 0 3.42.283 5.043.84l-3.737 8.36a1.201 1.201 0 002.193.98l2.77-6.194c3.484 1.898 5.995 5.379 6.724 9.307H7.507c.73-3.928 3.24-7.409 6.724-9.307z" fill="#24284B"/></g><defs><clipPath id="cclip0_228_735"><path fill="#fff" d="M0 0h41v41H0z"/></clipPath></defs></svg><svg fill="none" viewBox="0 0 20 20" id="dostavka" xmlns="http://www.w3.org/2000/svg"><path d="M19.662 9.813l-3.188-3.295a.586.586 0 00-.421-.178h-2.11v3.473h5.72zM13.943 12.622l.048-.05a3.105 3.105 0 012.21-.916c.835 0 1.62.325 2.21.916.68.68.98 1.597.901 2.487l.102.001a.586.586 0 00.586-.586v-3.49h-6.057v1.638zM12.77 3.226H2.437a.586.586 0 00-.586.586V5.57h4.651a.586.586 0 010 1.172H1.85v1.173h4.222a.586.586 0 010 1.172H1.85v5.38c0 .324.262.587.586.587h.452a3.105 3.105 0 01.903-2.482 3.105 3.105 0 012.21-.916c.835 0 1.62.325 2.21.916.68.68.98 1.598.901 2.488h3.659V3.226zM1.406 5.57a.586.586 0 000 1.172h.444V5.57h-.444zM.586 7.915a.586.586 0 000 1.171H1.85V7.915H.586z" fill="#28CB5A"/><path d="M7.41 13.373A1.98 1.98 0 006 12.789a1.98 1.98 0 00-1.409.584 1.98 1.98 0 00-.584 1.409c0 .532.208 1.032.584 1.409a1.98 1.98 0 001.409.583 1.995 1.995 0 001.409-3.402zM14.209 14.782c0 .532.207 1.032.583 1.409a1.98 1.98 0 001.41.583 1.995 1.995 0 000-3.985c-.533 0-1.033.207-1.41.584a1.98 1.98 0 00-.583 1.409z" fill="#28CB5A"/></svg><svg fill="none" viewBox="0 0 8 40" id="for-tooltip" xmlns="http://www.w3.org/2000/svg"><path d="M1.414 18.586l5.707-5.707A3 3 0 008 10.757v18.486a3 3 0 00-.879-2.122l-5.707-5.707a2 2 0 010-2.828z" fill="#E2EEF3"/><path d="M7.5 7v3.343a4 4 0 01-1.172 2.829l-4.707 4.707a3 3 0 000 4.242l4.707 4.707A4 4 0 017.5 29.657V33" stroke="#1B5DBD"/></svg><svg fill="none" viewBox="0 0 20 20" id="gipsokarton" xmlns="http://www.w3.org/2000/svg"><g clip-path="url(#fclip0_228_687)" fill="#28CB5A"><path d="M10 9.986c1.844 0 3.498-1.208 3.553-3.277.082-3.055-2.994-6.383-3.125-6.523a.586.586 0 00-.856 0c-.131.14-3.207 3.468-3.125 6.523C6.503 8.8 8.18 9.986 10 9.986zM0 17.177v2.237c0 .293.216.536.497.58l2.816-2.817H0zM4.97 17.177L2.147 20h1.82l2.822-2.823H4.97zM8.447 17.177L5.623 20h1.819l2.823-2.823h-1.82zM11.923 17.177L9.1 20h1.82l2.823-2.823h-1.82zM15.4 17.177L12.577 20h1.82l2.822-2.823H15.4zM16.053 20h3.361a.586.586 0 00.586-.586v-2.237h-1.123L16.054 20z"/><path d="M19.414 14.14h-7.762l6.016-4.881-.065.484a.586.586 0 001.162.154c.296-2.235.254-1.912.258-1.95a.586.586 0 00-.504-.652l-1.944-.258a.586.586 0 00-.154 1.162l.596.08-7.02 5.695L2.31 7.822a.586.586 0 00-.732.915l6.752 5.404H.586a.586.586 0 00-.586.586v1.278h20v-1.278a.586.586 0 00-.586-.586z"/></g><defs><clipPath id="fclip0_228_687"><path fill="#fff" d="M0 0h20v20H0z"/></clipPath></defs></svg><svg fill="none" viewBox="0 0 20 20" id="kachestvo" xmlns="http://www.w3.org/2000/svg"><g clip-path="url(#gclip0_228_698)" fill="#28CB5A"><path d="M19.28 16.87l-2.294-4.918a8.48 8.48 0 01-5.533 3.555l1.92 4.117a.652.652 0 001.203-.052l.984-2.703.203-.095 2.704.984a.652.652 0 00.813-.888zM10 0C6.047 0 2.831 3.216 2.831 7.169c0 3.952 3.217 7.168 7.169 7.168 3.953 0 7.169-3.216 7.169-7.168C17.169 3.216 13.953 0 10 0zm3.488 6.642L12.217 7.88l.3 1.75a.652.652 0 01-.945.687L10 9.492l-1.571.826a.652.652 0 01-.946-.687l.3-1.75-1.27-1.24a.652.652 0 01.36-1.11l1.757-.256.786-1.592a.652.652 0 011.168 0l.786 1.592 1.757.255a.652.652 0 01.361 1.112zM3.014 11.952L.72 16.87a.652.652 0 00.814.888l2.703-.984.203.094.984 2.704a.652.652 0 001.203.052l1.92-4.117a8.48 8.48 0 01-5.533-3.555z"/></g><defs><clipPath id="gclip0_228_698"><path fill="#fff" d="M0 0h20v20H0z"/></clipPath></defs></svg><svg fill="none" viewBox="0 0 20 20" id="membrana" xmlns="http://www.w3.org/2000/svg"><path d="M19.414 0H.586A.586.586 0 000 .586v4.687a2.15 2.15 0 002.148 2.149h15.704A2.15 2.15 0 0020 5.273V.586A.586.586 0 0019.414 0zM17.852 12.578H2.148A2.15 2.15 0 000 14.727v4.687c0 .324.262.586.586.586h18.828a.586.586 0 00.586-.586v-4.687a2.15 2.15 0 00-2.148-2.149zM1.758 10.586a.586.586 0 100-1.172H.586a.586.586 0 000 1.172h1.172zM5.29 10.586a.586.586 0 100-1.172H4.116a.586.586 0 000 1.172H5.29zM19.414 9.414h-1.172a.586.586 0 000 1.172h1.172a.586.586 0 100-1.172zM15.883 10.586a.586.586 0 100-1.172H14.71a.586.586 0 000 1.172h1.172zM8.82 10.586a.586.586 0 100-1.172H7.648a.586.586 0 000 1.172H8.82zM12.352 10.586a.586.586 0 100-1.172H11.18a.586.586 0 000 1.172h1.172z" fill="#28CB5A"/></svg><svg fill="none" viewBox="0 0 20 20" id="montazh" xmlns="http://www.w3.org/2000/svg"><g clip-path="url(#iclip0_228_661)" fill="#28CB5A"><path d="M19.85 2.5a.333.333 0 00-.553-.14l-1.155 1.156h-1.658V1.859L17.64.702a.333.333 0 00-.138-.553 3.471 3.471 0 00-1.014-.142c-.943 0-1.826.358-2.49 1.023a3.521 3.521 0 00-.974 3.107l.053.3-8.64 8.64c-.35-.062-.56-.108-.917-.108-.928 0-1.836.376-2.49 1.03A3.525 3.525 0 00.148 17.5a.332.332 0 00.553.14l1.156-1.156h1.665v1.657L2.36 19.298a.333.333 0 00.139.554 3.519 3.519 0 004.479-3.988l-.054-.3 8.64-8.641c.343.061.562.108.916.107.93 0 1.838-.375 2.491-1.029a3.522 3.522 0 00.88-3.502z"/><path d="M19.143 14.999l-4.109-4.07a2.944 2.944 0 00-.988-.636l-3.793 3.792c.15.373.364.714.638.989l4.11 4.068A2.93 2.93 0 0019.142 15zm-1.67 2.473a.586.586 0 01-.828 0l-2.88-2.839a.586.586 0 01.829-.828l2.88 2.838c.228.23.228.6 0 .829zM5.011 3.354l.528-.528a.332.332 0 00-.064-.52L1.897.084a.586.586 0 00-.715.088l-1.01 1.01a.586.586 0 00-.088.716l2.223 3.575a.333.333 0 00.52.064l.527-.526L7.1 8.757 8.757 7.1 5.011 3.354z"/></g><defs><clipPath id="iclip0_228_661"><path fill="#fff" d="M0 0h20v20H0z"/></clipPath></defs></svg><svg fill="none" viewBox="0 0 20 20" id="okna" xmlns="http://www.w3.org/2000/svg"><path d="M15.668 3.362a.39.39 0 00-.39-.39h-4.692v6.256h5.082V3.362zM9.414 2.971H4.723a.39.39 0 00-.39.39v3.255l1.88-1.881a.586.586 0 11.828.828l-2.709 2.71v.955h5.082V2.971zM8.23 7.575l-.501.501a.584.584 0 01-.829 0 .586.586 0 010-.828l.5-.502a.586.586 0 11.83.829zM9.414 10.4H4.332v4.5h5.082v-4.5zM15.668 10.4h-5.082v4.5h5.082v-4.5z" fill="#28CB5A"/><path d="M3.16 2.971c0-.647.525-1.172 1.172-1.172h11.336c.647 0 1.172.525 1.172 1.172V14.9h1.76V.78A.781.781 0 0017.817 0H2.182a.781.781 0 00-.781.781V14.9h1.76V2.97zM19.414 16.072H.586a.586.586 0 00-.586.586v.022C0 18.51 1.49 20 3.32 20h13.36c1.83 0 3.32-1.49 3.32-3.32v-.022a.586.586 0 00-.586-.586z" fill="#28CB5A"/></svg><svg fill="none" viewBox="0 0 24 24" id="phone" xmlns="http://www.w3.org/2000/svg"><path d="M20.01 15.38c-1.23 0-2.42-.2-3.53-.56a.977.977 0 00-1.01.24l-1.57 1.97c-2.83-1.35-5.48-3.9-6.89-6.83l1.95-1.66c.27-.28.35-.67.24-1.02-.37-1.11-.56-2.3-.56-3.53 0-.54-.45-.99-.99-.99H4.19C3.65 3 3 3.24 3 3.99 3 13.28 10.73 21 20.01 21c.71 0 .99-.63.99-1.18v-3.45c0-.54-.45-.99-.99-.99z" fill="#24284B"/></svg><svg fill="none" viewBox="0 0 20 20" id="prozrachnaya-smeta" xmlns="http://www.w3.org/2000/svg"><g clip-path="url(#lclip0_228_633)" fill="#28CB5A"><path d="M11.853 4.044V.04H3.346a.828.828 0 00-.829.828v18.304c0 .457.371.828.829.828h13.252c.457 0 .828-.37.828-.828V5.592H13.4a1.55 1.55 0 01-1.548-1.548zm-3.345 11.65l-1.762 1.762a.583.583 0 01-.827 0l-.731-.732a.585.585 0 11.827-.826l.318.317 1.348-1.348a.585.585 0 11.827.827zm0-3.899l-1.762 1.762a.583.583 0 01-.827 0l-.731-.731a.585.585 0 11.827-.827l.318.318 1.348-1.349a.585.585 0 01.827.827zm0-4.196L6.746 9.361a.583.583 0 01-.827 0l-.731-.731a.585.585 0 11.827-.827l.318.318L7.68 6.772a.585.585 0 11.827.827zm5.834 9.147h-3.743a.585.585 0 110-1.17h3.743a.585.585 0 110 1.17zm-4.328-4.483c0-.323.262-.585.585-.585h3.726a.585.585 0 010 1.17H10.6a.585.585 0 01-.585-.585zm4.896-3.899a.585.585 0 01-.585.585H10.6a.585.585 0 010-1.17h3.726c.323 0 .585.262.585.585z"/><path d="M13.023 4.043c0 .21.17.379.378.379h4.082L13.023 0v4.043z"/></g><defs><clipPath id="lclip0_228_633"><path fill="#fff" d="M0 0h20v20H0z"/></clipPath></defs></svg><svg fill="none" viewBox="0 0 20 20" id="russkie-brigadi" xmlns="http://www.w3.org/2000/svg"><g clip-path="url(#mclip0_228_637)" fill="#28CB5A"><path d="M7.03 10.684h-.35a.586.586 0 100 1.172h6.64a.586.586 0 000-1.172h-.35A3.036 3.036 0 0010.586 8.3v.919a.586.586 0 11-1.172 0v-.92a3.036 3.036 0 00-2.384 2.385zM13.02 15.735a3.804 3.804 0 01-6.04 0 4.489 4.489 0 00-1.863 3.64c0 .324.263.586.586.586h8.594a.586.586 0 00.586-.586 4.489 4.489 0 00-1.863-3.64z"/><path d="M10 16.055a2.637 2.637 0 002.637-2.637v-.39H7.363v.39A2.637 2.637 0 0010 16.055zM10.586 8.3v-.253a.586.586 0 10-1.172 0V8.3a3.03 3.03 0 011.172 0zM11.797 4.434h6.64a.586.586 0 000-1.172h-.35A3.036 3.036 0 0015.703.878v.92a.586.586 0 11-1.172 0v-.92a3.036 3.036 0 00-2.383 2.384h-.351a.586.586 0 000 1.172zM15.117 8.633a2.637 2.637 0 002.637-2.637v-.39H12.48v.39a2.637 2.637 0 002.637 2.637zM18.184 8.251a3.806 3.806 0 01-4.337 1.335c0 .003.002.005.003.007a1.761 1.761 0 011.228 1.677c0 .8-.538 1.477-1.272 1.688.002.023.003.046.003.07v.39c0 .453-.08.887-.226 1.29.043.024.085.05.125.078.492.357.918.787 1.266 1.269h4.44a.586.586 0 00.586-.586v-3.711a4.295 4.295 0 00-1.816-3.507zM15.703.878V.625a.586.586 0 10-1.172 0v.253a3.03 3.03 0 011.172 0zM1.563 4.434h6.64a.586.586 0 000-1.172h-.35A3.036 3.036 0 005.469.878v.92a.586.586 0 01-1.172 0v-.92a3.036 3.036 0 00-2.384 2.384h-.35a.586.586 0 000 1.172zM7.52 5.996v-.39H2.246v.39a2.637 2.637 0 005.274 0zM6.292 14.786c.04-.029.082-.054.125-.078a3.79 3.79 0 01-.226-1.29v-.39c0-.024.001-.047.003-.07a1.76 1.76 0 01-1.272-1.688c0-.785.517-1.452 1.228-1.677l.003-.007a3.806 3.806 0 01-4.337-1.335A4.295 4.295 0 000 11.758v3.71c0 .324.262.587.586.587h4.44a5.667 5.667 0 011.266-1.269zM5.469.878V.625a.586.586 0 00-1.172 0v.253a3.03 3.03 0 011.172 0z"/></g><defs><clipPath id="mclip0_228_637"><path fill="#fff" d="M0 0h20v20H0z"/></clipPath></defs></svg><svg fill="none" viewBox="0 0 24 24" id="time" xmlns="http://www.w3.org/2000/svg"><path d="M12 20c-4.42 0-8-3.58-8-8s3.58-8 8-8 8 3.58 8 8-3.58 8-8 8z" fill="#24284B"/><path fill-rule="evenodd" clip-rule="evenodd" d="M11.99 2C6.47 2 2 6.48 2 12s4.47 10 9.99 10C17.52 22 22 17.52 22 12S17.52 2 11.99 2zM4 12c0 4.42 3.58 8 8 8s8-3.58 8-8-3.58-8-8-8-8 3.58-8 8z" fill="#24284B"/><path d="M12.5 7H11v6l5.25 3.15.75-1.23-4.5-2.67V7z" fill="#BDDCE5"/></svg><svg fill="none" viewBox="0 0 50 50" id="trust-1" xmlns="http://www.w3.org/2000/svg"><g clip-path="url(#oclip0_608_1331)" fill="#28CB5A"><path d="M11.89 26.465H2.93v2.93h8.96c.077 1 .233 1.977.459 2.93h-6.49v2.929h7.427c2.876 6.874 9.668 11.719 17.573 11.719C41.36 46.973 50 38.43 50 27.93c0-4.106-1.32-7.902-3.538-11.015l3.01-2.508-1.874-2.252-3.008 2.507c-2.583-2.654-6.024-4.56-9.777-5.357.275-.573.44-1.206.44-1.883a4.4 4.4 0 00-4.394-4.395 4.4 4.4 0 00-4.394 4.395c0 .677.166 1.31.44 1.883a19.021 19.021 0 00-9.678 5.357l-3.009-2.507-1.874 2.252 3.01 2.508a19.01 19.01 0 00-2.068 3.69H0v2.93h12.349c-.226.952-.382 1.93-.458 2.93zm32.25 1.465c0 2.876-.913 5.612-2.642 7.909l-.878 1.169-11.225-8.346V14.746h1.464c7.27 0 13.282 5.914 13.282 13.184zM29.396 7.422a1.466 1.466 0 012.93 0 1.466 1.466 0 01-2.93 0z"/><path d="M41.21 27.93c0-5.157-3.923-9.437-8.886-10.15v9.417l7.631 5.65a10.143 10.143 0 001.256-4.917z"/></g><defs><clipPath id="oclip0_608_1331"><path fill="#fff" d="M0 0h50v50H0z"/></clipPath></defs></svg><svg fill="none" viewBox="0 0 44 44" id="trust-2" xmlns="http://www.w3.org/2000/svg"><path d="M18.047 7.734V.754l-6.98 6.98h6.98z" fill="#28CB5A"/><path d="M20.625 10.313H10.312v5.286c4.362.632 7.735 4.36 7.735 8.893 0 3.171-1.654 5.954-4.135 7.563a11.605 11.605 0 016 6.617H41.25V0H20.625v10.313zm15.469 23.203H20.625v-2.578h15.469v2.578zm0-5.157H20.625v-2.578h15.469v2.578zm-6.446-12.89a3.872 3.872 0 01-3.867-3.867c0-1.679 1.081-3.096 2.578-3.63V5.156h2.578v2.816c1.498.534 2.579 1.951 2.579 3.63h-2.578a1.29 1.29 0 10-1.29 1.289 3.872 3.872 0 013.868 3.867c0 1.678-1.081 3.096-2.578 3.63v2.815h-2.579v-2.815c-1.497-.534-2.578-1.952-2.578-3.63h2.578a1.29 1.29 0 101.29-1.29z" fill="#28CB5A"/><path d="M15.469 24.492a6.445 6.445 0 11-12.89 0 6.445 6.445 0 0112.89 0zM9.023 33.516C4.04 33.516 0 37.642 0 42.625V44h18.047v-1.375c0-4.983-4.04-9.11-9.024-9.11z" fill="#28CB5A"/></svg><svg fill="none" viewBox="0 0 44 44" id="trust-3" xmlns="http://www.w3.org/2000/svg"><g clip-path="url(#qclip0_608_1388)" fill="#28CB5A"><path d="M22 26.403c1.645 0 3.07-.827 3.875-2.23l-.539-1.694a7.61 7.61 0 01-6.672 0l-.54 1.695c.806 1.402 2.232 2.23 3.876 2.23zM25.789 6.854a11.357 11.357 0 01-8.07 3.366h-1.143v4.597c0 3.23 2.433 5.857 5.424 5.857 2.991 0 5.424-2.627 5.424-5.857V8.933a2.142 2.142 0 00-1.635-2.079z"/><path d="M17.72 7.647c2.735 0 5.255-1.352 6.983-3.426 2.294-.19 4.557 1.258 5.146 3.534.243-.342.387-.76.387-1.212V5.23A5.23 5.23 0 0025.006 0H13.765v6.543c0 .405.115.783.314 1.104h3.642zM11.906 33.636L12.602 44h18.796l.696-10.364H11.906zm8.807 6.197V37.26h2.574v2.573h-2.574z"/><path d="M9.153 31.062h25.694L33.977 44h6.147l-1.838-11.029a7.313 7.313 0 00-5.13-5.808l-5.155-1.532a6.998 6.998 0 01-6 3.346 6.999 6.999 0 01-6.002-3.346l-5.156 1.533a7.313 7.313 0 00-5.13 5.807l-1.837 11.03h6.147l-.87-12.939z"/></g><defs><clipPath id="qclip0_608_1388"><path fill="#fff" d="M0 0h44v44H0z"/></clipPath></defs></svg><svg fill="none" viewBox="0 0 44 44" id="trust-4" xmlns="http://www.w3.org/2000/svg"><g clip-path="url(#rclip0_608_1667)" fill="#28CB5A"><path d="M29.922 12.662c-.36 0-.72.137-.995.411a1.408 1.408 0 000 1.99 1.409 1.409 0 001.99 0 1.409 1.409 0 00-.995-2.4zM35.673 6.494l6.489-6.49 1.823 1.824-6.49 6.489-1.822-1.823z"/><path d="M33.5 12.314a3.991 3.991 0 01-.76 4.572 3.973 3.973 0 01-2.818 1.166c-1.02 0-2.04-.389-2.818-1.166a3.99 3.99 0 010-5.636 3.991 3.991 0 014.572-.759l4-4-1.6-1.601L19.173 5.98.01 25.144 18.865 44 38.03 24.837 39.12 9.934l-1.62-1.62-4 4zm-14.767 5.827l1.823 1.823-1.823 1.823-1.824-1.823 1.824-1.823zm0 14.277l-1.824-1.823 1.824-1.823 1.823 1.823-1.823 1.823zm7.221-5.85H11.511V23.99h14.443v2.579z"/></g><defs><clipPath id="rclip0_608_1667"><path fill="#fff" d="M0 0h44v44H0z"/></clipPath></defs></svg><svg fill="none" viewBox="0 0 50 50" id="trust-5" xmlns="http://www.w3.org/2000/svg"><path d="M3.996 44.403H31.72V6.646H3.995v37.757zm10.975-16.296v-2.536h10.853v2.536H14.97zm10.853 3.285v2.536H14.97v-2.536h10.853zM14.97 22.238v-2.536h10.853v2.536H14.97zm0-5.87v-2.535h10.853v2.536H14.97zm-4.335 11.788c-.7 0-1.267-.567-1.267-1.267v-.099a1.268 1.268 0 112.535 0v.099c0 .7-.568 1.267-1.268 1.267zm1.268 4.455v.098a1.268 1.268 0 01-2.535 0v-.098a1.268 1.268 0 012.535 0zm-1.268-10.324c-.7 0-1.267-.567-1.267-1.268v-.098a1.268 1.268 0 012.535 0v.098c0 .7-.568 1.268-1.268 1.268zm0-5.87c-.7 0-1.267-.567-1.267-1.267v-.098a1.268 1.268 0 012.535 0v.098c0 .7-.568 1.268-1.268 1.268zM34.34 11.018v26.908L37.805 46l3.465-8.074V11.018h-6.93zM42.518 8.481H41.27v2.536h1.248a.95.95 0 01.95.95v10.038h2.536V11.967a3.49 3.49 0 00-3.486-3.486zM41.27 8.482V7.467a3.47 3.47 0 00-3.465-3.465 3.47 3.47 0 00-3.465 3.465v1.015h6.93z" fill="#28CB5A"/></svg><svg fill="none" viewBox="0 0 44 44" id="trust-6" xmlns="http://www.w3.org/2000/svg"><path d="M20.997 35.009L3.832 17.845l8.796-8.796 8.369 8.369L36.505 1.909H0v40.182h40.182V15.824L20.997 35.01z" fill="#28CB5A"/><path d="M39.318 3.21L20.997 21.531l-8.369-8.369-4.682 4.682 13.05 13.051L44 7.892 39.318 3.21z" fill="#28CB5A"/></svg><svg fill="none" viewBox="0 0 44 44" id="trust-7" xmlns="http://www.w3.org/2000/svg"><path d="M39.733 36.33a4.939 4.939 0 00.977-2.953 4.972 4.972 0 00-4.967-4.967 4.972 4.972 0 00-4.966 4.967c0 1.108.365 2.133.98 2.96a6.988 6.988 0 00-2.883 2.341 6.988 6.988 0 00-2.897-2.347 4.939 4.939 0 00.977-2.954 4.972 4.972 0 00-4.967-4.967 4.972 4.972 0 00-4.966 4.967c0 1.108.365 2.133.98 2.96a6.988 6.988 0 00-2.879 2.335 6.989 6.989 0 00-2.893-2.341 4.939 4.939 0 00.977-2.954A4.972 4.972 0 008.24 28.41a4.972 4.972 0 00-4.967 4.967 4.94 4.94 0 00.981 2.96 6.958 6.958 0 00-4.176 6.37v1.292h43.844v-1.292a6.958 6.958 0 00-4.189-6.376zM30.813 14.881l-5.483-1.733-3.343-4.68-3.343 4.68-5.483 1.733 3.417 4.626-.046 5.75 5.455-1.82 5.455 1.82-.046-5.75 3.417-4.626zM23.297 0h-2.585v3.702h2.585V0zM40.012 15.552H36.31v2.585h3.702v-2.585zM7.699 15.552H3.997v2.585h3.702v-2.585zM34.823 3.668l-3.049 3.049 1.828 1.828 3.05-3.05-1.829-1.827zM9.167 3.65L7.34 5.48l3.05 3.049L12.217 6.7l-3.05-3.05z" fill="#28CB5A"/></svg><svg fill="none" viewBox="0 0 44 44" id="trust-8" xmlns="http://www.w3.org/2000/svg"><path d="M22 20.998c-1.04 0-1.885.845-1.885 1.885 0 1.039.846 1.884 1.885 1.884 1.04 0 1.885-.845 1.885-1.884 0-1.04-.846-1.885-1.885-1.885z" fill="#28CB5A"/><path d="M38.623 19.793L22 6.47 5.322 19.837v21.606H1.464V44h41.072v-2.557h-3.913v-21.65zm-9.916 9.891a9.455 9.455 0 01-2.278 1.681v9.56L22 38.875l-4.429 2.052v-9.56a9.455 9.455 0 01-2.278-1.682c-3.698-3.698-3.698-9.715 0-13.413 3.698-3.698 9.716-3.698 13.414 0 3.698 3.698 3.698 9.715 0 13.413z" fill="#28CB5A"/><path d="M20.127 32.273v4.707L22 35.968l1.873 1.012v-4.707a9.559 9.559 0 01-3.746 0zM22 16.053a6.906 6.906 0 00-4.9 2.026 6.936 6.936 0 000 9.798 6.936 6.936 0 009.8 0 6.936 6.936 0 000-9.798 6.908 6.908 0 00-4.9-2.026zm0 11.27a4.446 4.446 0 01-4.441-4.44A4.446 4.446 0 0122 18.442a4.446 4.446 0 014.441 4.44A4.446 4.446 0 0122 27.325z" fill="#28CB5A"/><path d="M22 3.276l20.401 16.352L44 17.633l-7.258-5.817V0h-7.207v6.04L22 0 0 17.633l1.599 1.995L22 3.276z" fill="#28CB5A"/></svg><svg fill="none" viewBox="0 0 20 20" id="vhodnaya-dver" xmlns="http://www.w3.org/2000/svg"><path d="M6.688 7.031H9.03v2.344H6.687V7.031zM10.203 7.031h2.344v2.344h-2.344V7.031zM10.203 3.516h2.344v2.343h-2.344V3.516z" fill="#28CB5A"/><path d="M3.172 18.828h-.586a.586.586 0 100 1.172h2.93V2.93c0-.324.262-.586.586-.586h7.03c.325 0 .587.262.587.586V20h2.93a.586.586 0 100-1.172h-.587V.586A.586.586 0 0015.477 0H3.757a.586.586 0 00-.585.586v18.242z" fill="#28CB5A"/><path d="M6.688 20h5.859v-9.453h-5.86V20zm1.171-7.695a.586.586 0 111.172 0v1.172a.586.586 0 11-1.172 0v-1.172zM6.688 3.516H9.03v2.343H6.687V3.516z" fill="#28CB5A"/></svg><svg fill="#fff" viewBox="0 0 21 23" id="viber" xmlns="http://www.w3.org/2000/svg"><path d="M16.254.546a30.984 30.984 0 00-11.581 0C2.987.91.86 2.948.495 4.549a22.87 22.87 0 000 9.463c.44 1.601 2.565 3.64 4.178 4.003.073 0 .146.073.146.146v4.585c0 .219.294.364.44.146l2.2-2.256s1.758-1.82 2.051-2.111c0 0 .074-.073.147-.073 2.199.073 4.471-.146 6.67-.51 1.686-.364 3.812-2.402 4.178-4.003.66-3.13.66-6.333 0-9.463-.44-1.528-2.565-3.566-4.251-3.93zm.073 13.684c-.366.728-.806 1.31-1.539 1.674l-.66.219a9.28 9.28 0 01-.733-.219c-2.345-.946-4.544-2.256-6.303-4.149a17.504 17.504 0 01-2.42-3.64c-.292-.654-.586-1.237-.806-1.892-.22-.582.147-1.164.514-1.6.366-.438.806-.729 1.319-.947.366-.219.733-.073 1.026.218.587.728 1.173 1.456 1.613 2.257.293.51.22 1.091-.293 1.455-.147.073-.22.146-.367.292-.073.072-.22.145-.293.29-.147.219-.147.437-.073.656.586 1.674 1.685 2.984 3.371 3.712.293.146.513.218.88.218.513-.072.733-.655 1.1-.946.366-.291.806-.291 1.245-.073.367.219.733.51 1.173.801.367.291.733.51 1.1.8.22.146.293.51.146.874zM13.25 8.771c-.147 0-.074 0 0 0-.293 0-.367-.146-.44-.364 0-.146 0-.364-.073-.51a1.383 1.383 0 00-.514-.8l-.44-.219c-.22-.072-.366-.072-.586-.072-.22-.073-.293-.219-.293-.437 0-.146.22-.291.367-.291 1.172.073 2.052.728 2.199 2.11v.292c0 .145-.074.291-.22.291zm-.733-3.203c-.367-.145-.733-.29-1.173-.364-.147 0-.367-.072-.513-.072-.22 0-.367-.146-.293-.364 0-.219.146-.364.366-.292.733.073 1.393.219 2.053.51 1.319.655 2.052 1.747 2.272 3.203v.946c-.073.291-.587.364-.66 0 0-.073-.073-.218-.073-.291 0-.655-.147-1.31-.44-1.893-.44-.655-.953-1.092-1.54-1.383zm3.958 4.368c-.22 0-.367-.219-.367-.437 0-.437-.073-.874-.146-1.31-.293-2.33-2.2-4.222-4.472-4.586-.366-.073-.732-.073-1.026-.146-.22 0-.513 0-.586-.29-.073-.22.147-.437.366-.437h.147c3.005.072.147 0 0 0 3.079.072 5.644 2.11 6.157 5.168.073.51.147 1.019.147 1.6.146.22 0 .438-.22.438z"/></svg><svg fill="#fff" viewBox="0 0 21 21" id="whatsapp" xmlns="http://www.w3.org/2000/svg"><path d="M17.927 3.062A10.428 10.428 0 0010.537 0C4.757 0 .073 4.667.073 10.427c0 1.823.512 3.646 1.39 5.177L0 21l5.561-1.458c1.537.802 3.22 1.24 4.976 1.24 5.78 0 10.463-4.667 10.463-10.428-.073-2.698-1.098-5.323-3.073-7.292zm-2.342 11.084c-.22.583-1.244 1.166-1.756 1.24a4.104 4.104 0 01-1.61-.073c-.365-.146-.877-.292-1.463-.584-2.634-1.094-4.317-3.719-4.463-3.937-.147-.146-1.098-1.386-1.098-2.698 0-1.313.659-1.896.878-2.188.22-.291.512-.291.732-.291h.512c.146 0 .366-.073.585.437.22.51.732 1.823.805 1.896a.463.463 0 010 .437 1.525 1.525 0 01-.292.438c-.147.146-.293.364-.366.437-.147.146-.293.292-.147.51.147.293.659 1.095 1.464 1.824 1.024.875 1.83 1.166 2.122 1.312.293.146.439.073.585-.073.146-.146.659-.729.805-1.02.146-.292.366-.22.585-.146.22.073 1.537.729 1.757.875.292.146.438.218.512.291.073.22.073.73-.147 1.313z"/></svg></svg>