<svg width="17" height="17" viewBox="0 0 17 17" fill="none" xmlns="http://www.w3.org/2000/svg">
<path d="M14.4118 3.93862C13.6907 2.99664 12.7858 2.25918 11.7223 1.74665C10.7086 1.25821 9.5762 1 8.44739 1C6.78781 1 5.21402 1.53324 3.89624 2.54203C3.43533 2.89493 3.01722 3.3013 2.6507 3.74862L2.51075 2.95569C2.4961 2.87278 2.4491 2.79902 2.38012 2.7507C2.31114 2.70243 2.22573 2.68351 2.14278 2.69816L1.30882 2.84539C1.1361 2.87587 1.02076 3.04059 1.05129 3.21331L1.5733 6.17094C1.58791 6.25389 1.63491 6.32761 1.70389 6.37593C1.75766 6.41353 1.82131 6.4333 1.88601 6.4333C1.90443 6.4333 1.92289 6.43169 1.94123 6.42848L4.89886 5.90633C5.07158 5.87585 5.18688 5.71113 5.15639 5.53841L5.00916 4.70445C4.99451 4.6215 4.94755 4.54778 4.87853 4.49946C4.80955 4.45119 4.72415 4.43226 4.64124 4.44691L3.88286 4.5808C4.15369 4.26568 4.4589 3.97779 4.7971 3.71885C5.85434 2.90954 7.11691 2.48174 8.44833 2.48174C10.3432 2.48174 12.0878 3.3411 13.2349 4.83952C15.2521 7.47488 14.7493 11.26 12.1141 13.2772C11.054 14.0889 9.79338 14.5179 8.46882 14.5179C8.20155 14.5179 7.93055 14.4999 7.66331 14.4644C6.06966 14.2527 4.65381 13.4331 3.67656 12.1565C3.0818 11.3797 2.68199 10.4629 2.52036 9.50518C2.49114 9.33224 2.3274 9.2155 2.15434 9.24489L1.31928 9.38581C1.14635 9.41498 1.02982 9.57885 1.05895 9.75183C1.26059 10.9466 1.75881 12.0897 2.49974 13.0574C3.71759 14.6483 5.48206 15.6698 7.46815 15.9335C7.80059 15.9776 8.13786 16 8.47051 16C10.1223 16 11.6938 15.4654 13.0149 14.454C16.2991 11.9401 16.9257 7.22293 14.4118 3.93862Z" fill="#28CB5A"/>
<path d="M8.63261 4.44691H7.78573C7.61034 4.44691 7.46815 4.5891 7.46815 4.76449V9.79396C7.46815 9.96935 7.61034 10.1115 7.78573 10.1115H12.009C12.1844 10.1115 12.3266 9.96935 12.3266 9.79396V8.94709C12.3266 8.7717 12.1844 8.62951 12.009 8.62951H8.95019V4.76449C8.95019 4.5891 8.808 4.44691 8.63261 4.44691Z" fill="#28CB5A"/>
<path d="M14.4118 3.93862L14.5309 3.84745L14.5309 3.84744L14.4118 3.93862ZM11.7223 1.74665L11.7874 1.61152L11.7874 1.61152L11.7223 1.74665ZM3.89624 2.54203L3.80506 2.42293L3.80505 2.42293L3.89624 2.54203ZM2.6507 3.74862L2.50298 3.77469L2.55974 4.0963L2.76672 3.84369L2.6507 3.74862ZM2.51075 2.95569L2.65847 2.92962L2.65846 2.92959L2.51075 2.95569ZM2.38012 2.7507L2.46617 2.62784L2.46612 2.62781L2.38012 2.7507ZM2.14278 2.69816L2.16886 2.84587L2.16887 2.84587L2.14278 2.69816ZM1.30882 2.84539L1.33489 2.9931L1.3349 2.9931L1.30882 2.84539ZM1.05129 3.21331L1.199 3.18724L1.199 3.1872L1.05129 3.21331ZM1.5733 6.17094L1.72103 6.14492L1.72102 6.14487L1.5733 6.17094ZM1.70389 6.37593L1.61783 6.49879L1.61793 6.49886L1.70389 6.37593ZM1.94123 6.42848L1.96716 6.57622L1.9673 6.57619L1.94123 6.42848ZM4.89886 5.90633L4.87278 5.75862L4.87278 5.75862L4.89886 5.90633ZM5.15639 5.53841L5.30411 5.51234L5.30411 5.51233L5.15639 5.53841ZM5.00916 4.70445L5.15688 4.67837L5.15688 4.67836L5.00916 4.70445ZM4.87853 4.49946L4.96455 4.37658L4.96454 4.37657L4.87853 4.49946ZM4.64124 4.44691L4.66732 4.59463L4.66734 4.59462L4.64124 4.44691ZM3.88286 4.5808L3.7691 4.48303L3.49536 4.80154L3.90894 4.72852L3.88286 4.5808ZM4.7971 3.71885L4.70593 3.59975L4.70592 3.59975L4.7971 3.71885ZM13.2349 4.83952L13.354 4.74835L13.354 4.74834L13.2349 4.83952ZM12.1141 13.2772L12.0229 13.1581L12.0229 13.1581L12.1141 13.2772ZM7.66331 14.4644L7.64356 14.6131L7.64357 14.6131L7.66331 14.4644ZM3.67656 12.1565L3.79567 12.0654L3.79566 12.0653L3.67656 12.1565ZM2.52036 9.50518L2.66827 9.48021L2.66827 9.48019L2.52036 9.50518ZM2.15434 9.24489L2.1793 9.3928L2.17945 9.39277L2.15434 9.24489ZM1.31928 9.38581L1.34423 9.53372L1.34424 9.53372L1.31928 9.38581ZM1.05895 9.75183L0.911033 9.77674L0.911041 9.77679L1.05895 9.75183ZM2.49974 13.0574L2.61885 12.9663L2.61884 12.9663L2.49974 13.0574ZM7.46815 15.9335L7.4484 16.0822L7.44842 16.0822L7.46815 15.9335ZM8.47051 16V16.15H8.47052L8.47051 16ZM13.0149 14.454L12.9237 14.3349L12.9237 14.3349L13.0149 14.454ZM8.95019 8.62951H8.80019V8.77951H8.95019V8.62951ZM8.95019 4.76449H8.80019H8.95019ZM14.5309 3.84744C13.7955 2.88687 12.8722 2.13431 11.7874 1.61152L11.6571 1.88178C12.6994 2.38404 13.5858 3.1064 14.2927 4.0298L14.5309 3.84744ZM11.7874 1.61152C10.7534 1.11326 9.59867 0.85 8.44739 0.85V1.15C9.55372 1.15 10.6639 1.40316 11.6572 1.88178L11.7874 1.61152ZM8.44739 0.85C6.75485 0.85 5.14901 1.39409 3.80506 2.42293L3.98742 2.66114C5.27903 1.67238 6.82078 1.15 8.44739 1.15V0.85ZM3.80505 2.42293C3.3348 2.78298 2.90839 3.19745 2.53467 3.65355L2.76672 3.84369C3.12606 3.40515 3.53586 3.00687 3.98743 2.66113L3.80505 2.42293ZM2.79841 3.72255L2.65847 2.92962L2.36303 2.98176L2.50298 3.77469L2.79841 3.72255ZM2.65846 2.92959C2.63689 2.80753 2.56771 2.69896 2.46617 2.62784L2.29406 2.87356C2.33048 2.89907 2.35531 2.93804 2.36304 2.98179L2.65846 2.92959ZM2.46612 2.62781C2.36456 2.55673 2.23883 2.52887 2.11669 2.55044L2.16887 2.84587C2.21263 2.83814 2.25772 2.84813 2.29411 2.8736L2.46612 2.62781ZM2.1167 2.55044L1.28274 2.69767L1.3349 2.9931L2.16886 2.84587L2.1167 2.55044ZM1.28275 2.69767C1.02849 2.74255 0.858613 2.98505 0.903575 3.23942L1.199 3.1872C1.1829 3.09613 1.24371 3.0092 1.33489 2.9931L1.28275 2.69767ZM0.903569 3.23938L1.42558 6.19701L1.72102 6.14487L1.199 3.18724L0.903569 3.23938ZM1.42557 6.19696C1.44709 6.31915 1.51632 6.42768 1.61783 6.49879L1.78994 6.25307C1.7535 6.22755 1.72872 6.18864 1.72103 6.14492L1.42557 6.19696ZM1.61793 6.49886C1.69707 6.55419 1.79075 6.5833 1.88601 6.5833V6.2833C1.85186 6.2833 1.81826 6.27287 1.78984 6.253L1.61793 6.49886ZM1.88601 6.5833C1.91317 6.5833 1.94031 6.58093 1.96716 6.57622L1.91529 6.28073C1.90547 6.28246 1.89568 6.2833 1.88601 6.2833V6.5833ZM1.9673 6.57619L4.92493 6.05405L4.87278 5.75862L1.91515 6.28076L1.9673 6.57619ZM4.92493 6.05405C5.17922 6.00916 5.349 5.76664 5.30411 5.51234L5.00867 5.56448C5.02476 5.65561 4.96393 5.74253 4.87278 5.75862L4.92493 6.05405ZM5.30411 5.51233L5.15688 4.67837L4.86145 4.73053L5.00868 5.56449L5.30411 5.51233ZM5.15688 4.67836C5.13531 4.55627 5.06618 4.44772 4.96455 4.37658L4.79251 4.62235C4.82892 4.64784 4.85371 4.68673 4.86145 4.73054L5.15688 4.67836ZM4.96454 4.37657C4.86298 4.3055 4.73725 4.27762 4.61513 4.2992L4.66734 4.59462C4.71104 4.5869 4.75612 4.59688 4.79253 4.62236L4.96454 4.37657ZM4.61516 4.2992L3.85678 4.43309L3.90894 4.72852L4.66732 4.59463L4.61516 4.2992ZM3.99662 4.67857C4.26054 4.37149 4.55815 4.09071 4.88829 3.83795L4.70592 3.59975C4.35965 3.86486 4.04684 4.15987 3.7691 4.48303L3.99662 4.67857ZM4.88828 3.83796C5.91935 3.04868 7.14987 2.63174 8.44833 2.63174V2.33174C7.08395 2.33174 5.78934 2.77039 4.70593 3.59975L4.88828 3.83796ZM8.44833 2.63174C10.2967 2.63174 11.9972 3.46954 13.1158 4.9307L13.354 4.74834C12.1784 3.21267 10.3897 2.33174 8.44833 2.33174V2.63174ZM13.1158 4.9307C15.0826 7.50027 14.5923 11.1913 12.0229 13.1581L12.2052 13.3964C14.9063 11.3288 15.4215 7.44948 13.354 4.74835L13.1158 4.9307ZM12.0229 13.1581C10.9887 13.9499 9.76013 14.3679 8.46882 14.3679V14.6679C9.82662 14.6679 11.1192 14.2279 12.2053 13.3963L12.0229 13.1581ZM8.46882 14.3679C8.20821 14.3679 7.9438 14.3503 7.68306 14.3157L7.64357 14.6131C7.91729 14.6494 8.19488 14.6679 8.46882 14.6679V14.3679ZM7.68306 14.3157C6.12885 14.1093 4.74874 13.3103 3.79567 12.0654L3.55745 12.2477C4.55889 13.5559 6.01048 14.3962 7.64356 14.6131L7.68306 14.3157ZM3.79566 12.0653C3.21564 11.3078 2.8258 10.4136 2.66827 9.48021L2.37245 9.53014C2.53818 10.5121 2.94796 11.4516 3.55746 12.2477L3.79566 12.0653ZM2.66827 9.48019C2.62528 9.22578 2.38427 9.0537 2.12923 9.09701L2.17945 9.39277C2.27053 9.37731 2.35701 9.43871 2.37246 9.53017L2.66827 9.48019ZM2.12938 9.09698L1.29432 9.2379L1.34424 9.53372L2.1793 9.3928L2.12938 9.09698ZM1.29433 9.2379C1.03967 9.28086 0.868154 9.52215 0.911033 9.77674L1.20687 9.72692C1.19148 9.63556 1.25303 9.54911 1.34423 9.53372L1.29433 9.2379ZM0.911041 9.77679C1.11677 10.9958 1.62495 12.1616 2.38064 13.1486L2.61884 12.9663C1.89267 12.0178 1.40441 10.8974 1.20686 9.72687L0.911041 9.77679ZM2.38063 13.1486C3.62266 14.7711 5.42287 15.8132 7.4484 16.0822L7.4879 15.7848C5.54124 15.5263 3.81252 14.5256 2.61885 12.9663L2.38063 13.1486ZM7.44842 16.0822C7.78734 16.1272 8.1312 16.15 8.47051 16.15V15.85C8.14452 15.85 7.81385 15.8281 7.48789 15.7848L7.44842 16.0822ZM8.47052 16.15C10.1556 16.15 11.759 15.6044 13.1061 14.5731L12.9237 14.3349C11.6286 15.3264 10.0891 15.85 8.47051 15.85L8.47052 16.15ZM13.1061 14.5731C16.456 12.0089 17.0952 7.19754 14.5309 3.84745L14.2927 4.02979C16.7563 7.24832 16.1421 11.8714 12.9237 14.3349L13.1061 14.5731ZM8.63261 4.29691H7.78573V4.59691H8.63261V4.29691ZM7.78573 4.29691C7.5275 4.29691 7.31815 4.50626 7.31815 4.76449H7.61815C7.61815 4.67195 7.69318 4.59691 7.78573 4.59691V4.29691ZM7.31815 4.76449V9.79396H7.61815V4.76449H7.31815ZM7.31815 9.79396C7.31815 10.0522 7.5275 10.2615 7.78573 10.2615V9.96154C7.69318 9.96154 7.61815 9.88651 7.61815 9.79396H7.31815ZM7.78573 10.2615H12.009V9.96154H7.78573V10.2615ZM12.009 10.2615C12.2672 10.2615 12.4766 10.0522 12.4766 9.79396H12.1766C12.1766 9.88651 12.1015 9.96154 12.009 9.96154V10.2615ZM12.4766 9.79396V8.94709H12.1766V9.79396H12.4766ZM12.4766 8.94709C12.4766 8.68886 12.2672 8.47951 12.009 8.47951V8.77951C12.1015 8.77951 12.1766 8.85454 12.1766 8.94709H12.4766ZM12.009 8.47951H8.95019V8.77951H12.009V8.47951ZM9.10019 8.62951V4.76449H8.80019V8.62951H9.10019ZM9.10019 4.76449C9.10019 4.50626 8.89084 4.29691 8.63261 4.29691V4.59691C8.72515 4.59691 8.80019 4.67195 8.80019 4.76449H9.10019Z" fill="#28CB5A"/>
</svg>
