<svg width="14" height="14" viewBox="0 0 14 14" fill="none" xmlns="http://www.w3.org/2000/svg">
<path d="M3.28125 8.43713H9.84375V9.84338H3.28125V8.43713Z" fill="#28CB5A"/>
<path d="M9.84375 7.49963H3.28125V6.09338H9.84375V7.49963Z" fill="#28CB5A"/>
<path d="M3.28125 10.7809H9.84375V12.1871H3.28125V10.7809Z" fill="#28CB5A"/>
<path d="M13.125 3.74965V12.6559C13.125 12.9146 12.9155 13.1246 12.6562 13.1246H10.7812V5.62465C10.7812 5.3659 10.5717 5.1559 10.3125 5.1559H2.8125C2.55328 5.1559 2.34375 5.3659 2.34375 5.62465V13.1246H0.46875C0.209531 13.1246 0 12.9146 0 12.6559V3.74965C0 3.57715 0.0946875 3.41871 0.246563 3.33715L6.34031 0.0558984C6.47859 -0.0186328 6.64594 -0.0186328 6.78422 0.0558984L12.878 3.33715C13.0303 3.41871 13.125 3.57715 13.125 3.74965Z" fill="#28CB5A"/>
</svg>
