<svg width="15" height="16" viewBox="0 0 15 16" fill="none" xmlns="http://www.w3.org/2000/svg">
<path d="M14.2476 6.77052V5.26599C14.2476 5.02977 14.1363 4.80635 13.9468 4.66418L7.95126 0.150639C7.68422 -0.0502131 7.31559 -0.0502131 7.04855 0.150639L1.0087 4.66418C0.819129 4.80635 0.707031 5.02977 0.707031 5.26599V6.77052C0.707031 7.1865 1.04329 7.52276 1.45928 7.52276H6.74688V15.0453H8.22958V7.5228H13.4954C13.9114 7.5228 14.2476 7.18654 14.2476 6.77052ZM4.56988 4.92977C4.51871 5.03358 4.49089 5.14942 4.49089 5.26603V6.01827H2.23412V5.64213L5.40189 3.2665L4.56988 4.92977ZM9.00443 6.01827H5.99542V5.44354L7.49994 2.43452L9.00446 5.44505V6.01827H9.00443ZM12.7657 6.01827H10.5089V5.26751C10.5089 5.1509 10.4826 5.0358 10.4299 4.93125L9.5987 3.2665L12.7657 5.64213V6.01827Z" fill="#28CB5A"/>
<path d="M13.5407 9.59747L12.9313 12.0363H10.5091C10.0938 12.0363 9.75684 12.3726 9.75684 12.7885V15.0453H11.2388V13.5408H12.7651V15.0453H14.2478V12.8811L15 9.96307L13.5407 9.59747Z" fill="#28CB5A"/>
<path d="M4.4684 12.0363H2.06946L1.45939 9.59747L0 9.96233L0.707109 12.8811V15.0453H2.21163V13.5408H3.73872V15.0453H5.22068V12.7885C5.22065 12.3726 4.88439 12.0363 4.4684 12.0363Z" fill="#28CB5A"/>
</svg>
